<svg width="340" height="65" viewBox="0 0 340 65" fill="none" xmlns="http://www.w3.org/2000/svg">
<path d="M0.970325 6.49988C0.690325 6.02654 0.500325 5.52988 0.400325 5.00988C0.300325 4.48321 0.290325 3.96321 0.370325 3.44988C0.450325 2.93654 0.616991 2.44654 0.870325 1.97988C1.12366 1.50654 1.46032 1.08321 1.88032 0.709877L2.42032 1.04988C2.52032 1.11654 2.56366 1.19988 2.55032 1.29988C2.54366 1.39321 2.51366 1.46654 2.46032 1.51988C2.28699 1.73321 2.13699 1.99321 2.01032 2.29988C1.89032 2.60654 1.81366 2.93654 1.78032 3.28988C1.74699 3.63654 1.76366 3.99654 1.83032 4.36988C1.89699 4.74321 2.03366 5.10321 2.24032 5.44988C2.32699 5.58988 2.35032 5.71654 2.31032 5.82988C2.27699 5.93654 2.19699 6.01654 2.07032 6.06988L0.970325 6.49988ZM4.01033 6.49988C3.73032 6.02654 3.54032 5.52988 3.44032 5.00988C3.34032 4.48321 3.33032 3.96321 3.41033 3.44988C3.49033 2.93654 3.65699 2.44654 3.91032 1.97988C4.16366 1.50654 4.50032 1.08321 4.92032 0.709877L5.46032 1.04988C5.56032 1.11654 5.60366 1.19988 5.59032 1.29988C5.58366 1.39321 5.55366 1.46654 5.50032 1.51988C5.32699 1.73321 5.17699 1.99321 5.05032 2.29988C4.93032 2.60654 4.85366 2.93654 4.82032 3.28988C4.78699 3.63654 4.80366 3.99654 4.87032 4.36988C4.93699 4.74321 5.07366 5.10321 5.28032 5.44988C5.36699 5.58988 5.39032 5.71654 5.35033 5.82988C5.31699 5.93654 5.23699 6.01654 5.11033 6.06988L4.01033 6.49988ZM20.055 1.66988L14.215 15.9999H12.475L6.63501 1.66988H8.18501C8.35835 1.66988 8.49835 1.71321 8.60501 1.79988C8.71168 1.88654 8.79168 1.99654 8.84501 2.12988L12.885 12.2399C12.9717 12.4665 13.055 12.7132 13.135 12.9799C13.2217 13.2465 13.2983 13.5265 13.365 13.8199C13.4317 13.5265 13.5017 13.2465 13.575 12.9799C13.6483 12.7132 13.7283 12.4665 13.815 12.2399L17.845 2.12988C17.885 2.01654 17.9617 1.91321 18.075 1.81988C18.195 1.71988 18.3383 1.66988 18.505 1.66988H20.055ZM26.7963 9.82988C26.7963 9.41654 26.7363 9.03988 26.6163 8.69988C26.5029 8.35321 26.3329 8.05654 26.1063 7.80988C25.8863 7.55654 25.6163 7.36321 25.2963 7.22988C24.9763 7.08988 24.6129 7.01988 24.2063 7.01988C23.3529 7.01988 22.6763 7.26988 22.1763 7.76988C21.6829 8.26321 21.3763 8.94988 21.2563 9.82988H26.7963ZM28.2363 14.5799C28.0163 14.8465 27.7529 15.0799 27.4463 15.2799C27.1396 15.4732 26.8096 15.6332 26.4563 15.7599C26.1096 15.8865 25.7496 15.9799 25.3763 16.0399C25.0029 16.1065 24.6329 16.1399 24.2663 16.1399C23.5663 16.1399 22.9196 16.0232 22.3263 15.7899C21.7396 15.5499 21.2296 15.2032 20.7963 14.7499C20.3696 14.2899 20.0363 13.7232 19.7963 13.0499C19.5563 12.3765 19.4363 11.6032 19.4363 10.7299C19.4363 10.0232 19.5429 9.36321 19.7563 8.74988C19.9763 8.13654 20.2896 7.60654 20.6963 7.15988C21.1029 6.70654 21.5996 6.35321 22.1863 6.09988C22.7729 5.83988 23.4329 5.70988 24.1663 5.70988C24.7729 5.70988 25.3329 5.81321 25.8463 6.01988C26.3663 6.21988 26.8129 6.51321 27.1863 6.89988C27.5663 7.27988 27.8629 7.75321 28.0763 8.31988C28.2896 8.87988 28.3963 9.51988 28.3963 10.2399C28.3963 10.5199 28.3663 10.7065 28.3063 10.7999C28.2463 10.8932 28.1329 10.9399 27.9663 10.9399H21.1963C21.2163 11.5799 21.3029 12.1365 21.4563 12.6099C21.6163 13.0832 21.8363 13.4799 22.1163 13.7999C22.3963 14.1132 22.7296 14.3499 23.1163 14.5099C23.5029 14.6632 23.9363 14.7399 24.4163 14.7399C24.8629 14.7399 25.2463 14.6899 25.5663 14.5899C25.8929 14.4832 26.1729 14.3699 26.4063 14.2499C26.6396 14.1299 26.8329 14.0199 26.9863 13.9199C27.1463 13.8132 27.2829 13.7599 27.3963 13.7599C27.5429 13.7599 27.6563 13.8165 27.7363 13.9299L28.2363 14.5799ZM36.4827 7.53988C36.4027 7.68654 36.2793 7.75988 36.1127 7.75988C36.0127 7.75988 35.8993 7.72321 35.7727 7.64988C35.646 7.57654 35.4893 7.49654 35.3027 7.40988C35.1227 7.31654 34.906 7.23321 34.6527 7.15988C34.3993 7.07988 34.0993 7.03988 33.7527 7.03988C33.4527 7.03988 33.1827 7.07988 32.9427 7.15988C32.7027 7.23321 32.496 7.33654 32.3227 7.46988C32.156 7.60321 32.026 7.75988 31.9327 7.93988C31.846 8.11321 31.8027 8.30321 31.8027 8.50988C31.8027 8.76988 31.876 8.98654 32.0227 9.15988C32.176 9.33321 32.376 9.48321 32.6227 9.60988C32.8693 9.73654 33.1493 9.84988 33.4627 9.94988C33.776 10.0432 34.096 10.1465 34.4227 10.2599C34.756 10.3665 35.0793 10.4865 35.3927 10.6199C35.706 10.7532 35.986 10.9199 36.2327 11.1199C36.4793 11.3199 36.676 11.5665 36.8227 11.8599C36.976 12.1465 37.0527 12.4932 37.0527 12.8999C37.0527 13.3665 36.9693 13.7999 36.8027 14.1999C36.636 14.5932 36.3893 14.9365 36.0627 15.2299C35.736 15.5165 35.336 15.7432 34.8627 15.9099C34.3893 16.0765 33.8427 16.1599 33.2227 16.1599C32.516 16.1599 31.876 16.0465 31.3027 15.8199C30.7293 15.5865 30.2427 15.2899 29.8427 14.9299L30.2627 14.2499C30.316 14.1632 30.3793 14.0965 30.4527 14.0499C30.526 14.0032 30.6193 13.9799 30.7327 13.9799C30.8527 13.9799 30.9793 14.0265 31.1127 14.1199C31.246 14.2132 31.406 14.3165 31.5927 14.4299C31.786 14.5432 32.0193 14.6465 32.2927 14.7399C32.566 14.8332 32.906 14.8799 33.3127 14.8799C33.6593 14.8799 33.9627 14.8365 34.2227 14.7499C34.4827 14.6565 34.6993 14.5332 34.8727 14.3799C35.046 14.2265 35.1727 14.0499 35.2527 13.8499C35.3393 13.6499 35.3827 13.4365 35.3827 13.2099C35.3827 12.9299 35.306 12.6999 35.1527 12.5199C35.006 12.3332 34.8093 12.1765 34.5627 12.0499C34.316 11.9165 34.0327 11.8032 33.7127 11.7099C33.3993 11.6099 33.076 11.5065 32.7427 11.3999C32.416 11.2932 32.0927 11.1732 31.7727 11.0399C31.4593 10.8999 31.1793 10.7265 30.9327 10.5199C30.686 10.3132 30.486 10.0599 30.3327 9.75988C30.186 9.45321 30.1127 9.08321 30.1127 8.64988C30.1127 8.26321 30.1927 7.89321 30.3527 7.53988C30.5127 7.17988 30.746 6.86654 31.0527 6.59988C31.3593 6.32654 31.736 6.10988 32.1827 5.94988C32.6293 5.78988 33.1393 5.70988 33.7127 5.70988C34.3793 5.70988 34.976 5.81654 35.5027 6.02988C36.036 6.23654 36.496 6.52321 36.8827 6.88988L36.4827 7.53988ZM48.635 15.9999H46.855V7.35988H41.635V13.4399C41.635 13.8665 41.7383 14.1832 41.945 14.3899C42.1517 14.5965 42.4183 14.6999 42.745 14.6999C42.9317 14.6999 43.0917 14.6765 43.225 14.6299C43.365 14.5765 43.485 14.5199 43.585 14.4599C43.685 14.3999 43.7683 14.3465 43.835 14.2999C43.9083 14.2465 43.9717 14.2199 44.025 14.2199C44.1183 14.2199 44.2017 14.2765 44.275 14.3899L44.795 15.2399C44.4883 15.5265 44.1183 15.7532 43.685 15.9199C43.2517 16.0799 42.805 16.1599 42.345 16.1599C41.545 16.1599 40.9283 15.9365 40.495 15.4899C40.0683 15.0432 39.855 14.3999 39.855 13.5599V7.35988H38.635C38.5283 7.35988 38.4383 7.32988 38.365 7.26988C38.2917 7.20321 38.255 7.10321 38.255 6.96988V6.25988L39.915 6.03988L40.325 2.91988C40.345 2.81988 40.3883 2.73988 40.455 2.67988C40.5283 2.61321 40.6217 2.57988 40.735 2.57988H41.635V6.06988H48.635V15.9999ZM49.075 2.61988C49.075 2.79321 49.0383 2.95654 48.965 3.10988C48.8983 3.25654 48.805 3.38654 48.685 3.49988C48.5717 3.61321 48.4383 3.70321 48.285 3.76988C48.1317 3.83654 47.9683 3.86988 47.795 3.86988C47.6217 3.86988 47.4583 3.83654 47.305 3.76988C47.1583 3.70321 47.0283 3.61321 46.915 3.49988C46.8017 3.38654 46.7117 3.25654 46.645 3.10988C46.5783 2.95654 46.545 2.79321 46.545 2.61988C46.545 2.44654 46.5783 2.28321 46.645 2.12988C46.7117 1.96988 46.8017 1.83321 46.915 1.71988C47.0283 1.59988 47.1583 1.50654 47.305 1.43988C47.4583 1.37321 47.6217 1.33988 47.795 1.33988C47.9683 1.33988 48.1317 1.37321 48.285 1.43988C48.4383 1.50654 48.5717 1.59988 48.685 1.71988C48.805 1.83321 48.8983 1.96988 48.965 2.12988C49.0383 2.28321 49.075 2.44654 49.075 2.61988ZM53.3492 13.5599C53.6759 13.9999 54.0326 14.3099 54.4192 14.4899C54.8126 14.6699 55.2426 14.7599 55.7092 14.7599C56.6626 14.7599 57.3926 14.4232 57.8992 13.7499C58.4059 13.0765 58.6592 12.0732 58.6592 10.7399C58.6592 9.49988 58.4326 8.58988 57.9792 8.00988C57.5326 7.42321 56.8926 7.12988 56.0592 7.12988C55.4792 7.12988 54.9726 7.26321 54.5392 7.52988C54.1126 7.79654 53.7159 8.17321 53.3492 8.65988V13.5599ZM53.3492 7.32988C53.7759 6.83654 54.2559 6.44321 54.7892 6.14988C55.3292 5.85654 55.9492 5.70988 56.6492 5.70988C57.2426 5.70988 57.7759 5.82321 58.2492 6.04988C58.7292 6.27654 59.1359 6.60654 59.4692 7.03988C59.8026 7.46654 60.0559 7.98654 60.2292 8.59988C60.4092 9.21321 60.4992 9.90321 60.4992 10.6699C60.4992 11.4899 60.3992 12.2365 60.1992 12.9099C59.9992 13.5832 59.7092 14.1599 59.3292 14.6399C58.9559 15.1132 58.4992 15.4832 57.9592 15.7499C57.4192 16.0099 56.8126 16.1399 56.1392 16.1399C55.4726 16.1399 54.9092 16.0165 54.4492 15.7699C53.9959 15.5165 53.5992 15.1599 53.2592 14.6999L53.1692 15.6199C53.1159 15.8732 52.9626 15.9999 52.7092 15.9999H51.5592V1.26988H53.3492V7.32988ZM71.0806 5.86988V15.9999H70.0206C69.7673 15.9999 69.6073 15.8765 69.5406 15.6299L69.4006 14.5399C68.9606 15.0265 68.4673 15.4199 67.9206 15.7199C67.374 16.0132 66.7473 16.1599 66.0406 16.1599C65.4873 16.1599 64.9973 16.0699 64.5706 15.8899C64.1506 15.7032 63.7973 15.4432 63.5106 15.1099C63.224 14.7765 63.0073 14.3732 62.8606 13.8999C62.7206 13.4265 62.6506 12.9032 62.6506 12.3299V5.86988H64.4306V12.3299C64.4306 13.0965 64.604 13.6899 64.9506 14.1099C65.304 14.5299 65.8406 14.7399 66.5606 14.7399C67.0873 14.7399 67.5773 14.6165 68.0306 14.3699C68.4906 14.1165 68.914 13.7699 69.3006 13.3299V5.86988H71.0806ZM75.743 1.26988V15.9999H73.963V1.26988H75.743ZM86.9595 5.86988V15.9999H85.8995C85.6462 15.9999 85.4862 15.8765 85.4195 15.6299L85.2795 14.5399C84.8395 15.0265 84.3462 15.4199 83.7995 15.7199C83.2529 16.0132 82.6262 16.1599 81.9195 16.1599C81.3662 16.1599 80.8762 16.0699 80.4495 15.8899C80.0295 15.7032 79.6762 15.4432 79.3895 15.1099C79.1029 14.7765 78.8862 14.3732 78.7395 13.8999C78.5995 13.4265 78.5295 12.9032 78.5295 12.3299V5.86988H80.3095V12.3299C80.3095 13.0965 80.4829 13.6899 80.8295 14.1099C81.1829 14.5299 81.7195 14.7399 82.4395 14.7399C82.9662 14.7399 83.4562 14.6165 83.9095 14.3699C84.3695 14.1165 84.7929 13.7699 85.1795 13.3299V5.86988H86.9595ZM89.7819 15.9999V5.86988H90.8519C91.1052 5.86988 91.2619 5.99321 91.3219 6.23988L91.4519 7.27988C91.8252 6.81988 92.2452 6.44321 92.7119 6.14988C93.1786 5.85654 93.7186 5.70988 94.3319 5.70988C95.0119 5.70988 95.5619 5.89988 95.9819 6.27988C96.4086 6.65988 96.7152 7.17321 96.9019 7.81988C97.0486 7.45321 97.2352 7.13654 97.4619 6.86988C97.6952 6.60321 97.9552 6.38321 98.2419 6.20988C98.5286 6.03654 98.8319 5.90988 99.1519 5.82988C99.4786 5.74988 99.8086 5.70988 100.142 5.70988C100.675 5.70988 101.149 5.79654 101.562 5.96988C101.982 6.13654 102.335 6.38321 102.622 6.70988C102.915 7.03654 103.139 7.43988 103.292 7.91988C103.445 8.39321 103.522 8.93654 103.522 9.54988V15.9999H101.732V9.54988C101.732 8.75654 101.559 8.15654 101.212 7.74988C100.865 7.33654 100.365 7.12988 99.7119 7.12988C99.4186 7.12988 99.1386 7.18321 98.8719 7.28988C98.6119 7.38988 98.3819 7.53988 98.1819 7.73988C97.9819 7.93988 97.8219 8.19321 97.7019 8.49988C97.5886 8.79988 97.5319 9.14988 97.5319 9.54988V15.9999H95.7419V9.54988C95.7419 8.73654 95.5786 8.12988 95.2519 7.72988C94.9252 7.32988 94.4486 7.12988 93.8219 7.12988C93.3819 7.12988 92.9752 7.24988 92.6019 7.48988C92.2286 7.72321 91.8852 8.04321 91.5719 8.44988V15.9999H89.7819ZM117.944 8.26988C117.624 7.84321 117.268 7.53988 116.874 7.35988C116.481 7.17321 116.044 7.07988 115.564 7.07988C114.624 7.07988 113.901 7.41654 113.394 8.08988C112.888 8.76321 112.634 9.72321 112.634 10.9699C112.634 11.6299 112.691 12.1965 112.804 12.6699C112.918 13.1365 113.084 13.5232 113.304 13.8299C113.524 14.1299 113.794 14.3499 114.114 14.4899C114.434 14.6299 114.798 14.6999 115.204 14.6999C115.791 14.6999 116.301 14.5665 116.734 14.2999C117.174 14.0332 117.578 13.6565 117.944 13.1699V8.26988ZM119.724 5.86988V19.4299H117.944V14.4899C117.524 14.9832 117.041 15.3832 116.494 15.6899C115.948 15.9899 115.324 16.1399 114.624 16.1399C114.044 16.1399 113.518 16.0299 113.044 15.8099C112.571 15.5832 112.168 15.2532 111.834 14.8199C111.501 14.3865 111.244 13.8465 111.064 13.1999C110.884 12.5532 110.794 11.8099 110.794 10.9699C110.794 10.2232 110.894 9.52988 111.094 8.88988C111.294 8.24321 111.581 7.68321 111.954 7.20988C112.328 6.73654 112.784 6.36654 113.324 6.09988C113.871 5.82654 114.484 5.68988 115.164 5.68988C115.824 5.68988 116.384 5.80654 116.844 6.03988C117.304 6.27321 117.711 6.59988 118.064 7.01988L118.184 6.23988C118.251 5.99321 118.411 5.86988 118.664 5.86988H119.724ZM130.866 5.86988V15.9999H129.806C129.552 15.9999 129.392 15.8765 129.326 15.6299L129.186 14.5399C128.746 15.0265 128.252 15.4199 127.706 15.7199C127.159 16.0132 126.532 16.1599 125.826 16.1599C125.272 16.1599 124.782 16.0699 124.356 15.8899C123.936 15.7032 123.582 15.4432 123.296 15.1099C123.009 14.7765 122.792 14.3732 122.646 13.8999C122.506 13.4265 122.436 12.9032 122.436 12.3299V5.86988H124.216V12.3299C124.216 13.0965 124.389 13.6899 124.736 14.1099C125.089 14.5299 125.626 14.7399 126.346 14.7399C126.872 14.7399 127.362 14.6165 127.816 14.3699C128.276 14.1165 128.699 13.7699 129.086 13.3299V5.86988H130.866ZM135.568 5.86988V15.9999H133.788V5.86988H135.568ZM135.948 2.68988C135.948 2.86321 135.911 3.02654 135.838 3.17988C135.771 3.32654 135.678 3.45988 135.558 3.57988C135.445 3.69321 135.308 3.78321 135.148 3.84988C134.995 3.91654 134.831 3.94988 134.658 3.94988C134.485 3.94988 134.321 3.91654 134.168 3.84988C134.021 3.78321 133.891 3.69321 133.778 3.57988C133.665 3.45988 133.575 3.32654 133.508 3.17988C133.441 3.02654 133.408 2.86321 133.408 2.68988C133.408 2.51654 133.441 2.35321 133.508 2.19988C133.575 2.03988 133.665 1.90321 133.778 1.78988C133.891 1.66988 134.021 1.57654 134.168 1.50988C134.321 1.44321 134.485 1.40988 134.658 1.40988C134.831 1.40988 134.995 1.44321 135.148 1.50988C135.308 1.57654 135.445 1.66988 135.558 1.78988C135.678 1.90321 135.771 2.03988 135.838 2.19988C135.911 2.35321 135.948 2.51654 135.948 2.68988ZM144.393 7.53988C144.313 7.68654 144.189 7.75988 144.023 7.75988C143.923 7.75988 143.809 7.72321 143.683 7.64988C143.556 7.57654 143.399 7.49654 143.213 7.40988C143.033 7.31654 142.816 7.23321 142.563 7.15988C142.309 7.07988 142.009 7.03988 141.663 7.03988C141.363 7.03988 141.093 7.07988 140.853 7.15988C140.613 7.23321 140.406 7.33654 140.233 7.46988C140.066 7.60321 139.936 7.75988 139.843 7.93988C139.756 8.11321 139.713 8.30321 139.713 8.50988C139.713 8.76988 139.786 8.98654 139.933 9.15988C140.086 9.33321 140.286 9.48321 140.533 9.60988C140.779 9.73654 141.059 9.84988 141.373 9.94988C141.686 10.0432 142.006 10.1465 142.333 10.2599C142.666 10.3665 142.989 10.4865 143.303 10.6199C143.616 10.7532 143.896 10.9199 144.143 11.1199C144.389 11.3199 144.586 11.5665 144.733 11.8599C144.886 12.1465 144.963 12.4932 144.963 12.8999C144.963 13.3665 144.879 13.7999 144.713 14.1999C144.546 14.5932 144.299 14.9365 143.973 15.2299C143.646 15.5165 143.246 15.7432 142.773 15.9099C142.299 16.0765 141.753 16.1599 141.133 16.1599C140.426 16.1599 139.786 16.0465 139.213 15.8199C138.639 15.5865 138.153 15.2899 137.753 14.9299L138.173 14.2499C138.226 14.1632 138.289 14.0965 138.363 14.0499C138.436 14.0032 138.529 13.9799 138.643 13.9799C138.763 13.9799 138.889 14.0265 139.023 14.1199C139.156 14.2132 139.316 14.3165 139.503 14.4299C139.696 14.5432 139.929 14.6465 140.203 14.7399C140.476 14.8332 140.816 14.8799 141.223 14.8799C141.569 14.8799 141.873 14.8365 142.133 14.7499C142.393 14.6565 142.609 14.5332 142.783 14.3799C142.956 14.2265 143.083 14.0499 143.163 13.8499C143.249 13.6499 143.293 13.4365 143.293 13.2099C143.293 12.9299 143.216 12.6999 143.063 12.5199C142.916 12.3332 142.719 12.1765 142.473 12.0499C142.226 11.9165 141.943 11.8032 141.623 11.7099C141.309 11.6099 140.986 11.5065 140.653 11.3999C140.326 11.2932 140.003 11.1732 139.683 11.0399C139.369 10.8999 139.089 10.7265 138.843 10.5199C138.596 10.3132 138.396 10.0599 138.243 9.75988C138.096 9.45321 138.023 9.08321 138.023 8.64988C138.023 8.26321 138.103 7.89321 138.263 7.53988C138.423 7.17988 138.656 6.86654 138.963 6.59988C139.269 6.32654 139.646 6.10988 140.093 5.94988C140.539 5.78988 141.049 5.70988 141.623 5.70988C142.289 5.70988 142.886 5.81654 143.413 6.02988C143.946 6.23654 144.406 6.52321 144.793 6.88988L144.393 7.53988ZM154.052 13.5599C154.379 13.9999 154.736 14.3099 155.122 14.4899C155.509 14.6699 155.942 14.7599 156.422 14.7599C157.369 14.7599 158.096 14.4232 158.602 13.7499C159.109 13.0765 159.362 12.1165 159.362 10.8699C159.362 10.2099 159.302 9.64321 159.182 9.16988C159.069 8.69654 158.902 8.30988 158.682 8.00988C158.462 7.70321 158.192 7.47988 157.872 7.33988C157.552 7.19988 157.189 7.12988 156.782 7.12988C156.202 7.12988 155.692 7.26321 155.252 7.52988C154.819 7.79654 154.419 8.17321 154.052 8.65988V13.5599ZM153.962 7.43988C154.389 6.91321 154.882 6.48988 155.442 6.16988C156.002 5.84988 156.642 5.68988 157.362 5.68988C157.949 5.68988 158.479 5.80321 158.952 6.02988C159.426 6.24988 159.829 6.57988 160.162 7.01988C160.496 7.45321 160.752 7.99321 160.932 8.63988C161.112 9.28654 161.202 10.0299 161.202 10.8699C161.202 11.6165 161.102 12.3132 160.902 12.9599C160.702 13.5999 160.412 14.1565 160.032 14.6299C159.659 15.0965 159.199 15.4665 158.652 15.7399C158.112 16.0065 157.502 16.1399 156.822 16.1399C156.202 16.1399 155.669 16.0365 155.222 15.8299C154.782 15.6165 154.392 15.3232 154.052 14.9499V19.4299H152.262V5.86988H153.332C153.586 5.86988 153.742 5.99321 153.802 6.23988L153.962 7.43988ZM167.743 5.70988C168.483 5.70988 169.15 5.83321 169.743 6.07988C170.337 6.32654 170.843 6.67654 171.263 7.12988C171.683 7.58321 172.003 8.13321 172.223 8.77988C172.45 9.41988 172.563 10.1365 172.563 10.9299C172.563 11.7299 172.45 12.4499 172.223 13.0899C172.003 13.7299 171.683 14.2765 171.263 14.7299C170.843 15.1832 170.337 15.5332 169.743 15.7799C169.15 16.0199 168.483 16.1399 167.743 16.1399C166.997 16.1399 166.323 16.0199 165.723 15.7799C165.13 15.5332 164.623 15.1832 164.203 14.7299C163.783 14.2765 163.46 13.7299 163.233 13.0899C163.013 12.4499 162.903 11.7299 162.903 10.9299C162.903 10.1365 163.013 9.41988 163.233 8.77988C163.46 8.13321 163.783 7.58321 164.203 7.12988C164.623 6.67654 165.13 6.32654 165.723 6.07988C166.323 5.83321 166.997 5.70988 167.743 5.70988ZM167.743 14.7499C168.743 14.7499 169.49 14.4165 169.983 13.7499C170.477 13.0765 170.723 12.1399 170.723 10.9399C170.723 9.73321 170.477 8.79321 169.983 8.11988C169.49 7.44654 168.743 7.10988 167.743 7.10988C167.237 7.10988 166.793 7.19654 166.413 7.36988C166.04 7.54321 165.727 7.79321 165.473 8.11988C165.227 8.44654 165.04 8.84988 164.913 9.32988C164.793 9.80321 164.733 10.3399 164.733 10.9399C164.733 12.1399 164.98 13.0765 165.473 13.7499C165.973 14.4165 166.73 14.7499 167.743 14.7499ZM176.511 7.89988C176.831 7.20654 177.224 6.66654 177.691 6.27988C178.158 5.88654 178.728 5.68988 179.401 5.68988C179.614 5.68988 179.818 5.71321 180.011 5.75988C180.211 5.80654 180.388 5.87988 180.541 5.97988L180.411 7.30988C180.371 7.47654 180.271 7.55988 180.111 7.55988C180.018 7.55988 179.881 7.53988 179.701 7.49988C179.521 7.45988 179.318 7.43988 179.091 7.43988C178.771 7.43988 178.484 7.48654 178.231 7.57988C177.984 7.67321 177.761 7.81321 177.561 7.99988C177.368 8.17988 177.191 8.40654 177.031 8.67988C176.878 8.94654 176.738 9.25321 176.611 9.59988V15.9999H174.821V5.86988H175.841C176.034 5.86988 176.168 5.90654 176.241 5.97988C176.314 6.05321 176.364 6.17988 176.391 6.35988L176.511 7.89988ZM197.796 15.9999H196.016V7.35988H190.996V13.4399C190.996 13.8665 191.099 14.1832 191.306 14.3899C191.519 14.5965 191.786 14.6999 192.106 14.6999C192.293 14.6999 192.453 14.6765 192.586 14.6299C192.726 14.5765 192.846 14.5199 192.946 14.4599C193.046 14.3999 193.129 14.3465 193.196 14.2999C193.269 14.2465 193.333 14.2199 193.386 14.2199C193.486 14.2199 193.569 14.2765 193.636 14.3899L194.166 15.2399C193.853 15.5265 193.479 15.7532 193.046 15.9199C192.613 16.0799 192.166 16.1599 191.706 16.1599C190.913 16.1599 190.299 15.9365 189.866 15.4899C189.433 15.0432 189.216 14.3999 189.216 13.5599V7.35988H184.506V13.4399C184.506 13.8665 184.609 14.1832 184.816 14.3899C185.023 14.5965 185.289 14.6999 185.616 14.6999C185.803 14.6999 185.963 14.6765 186.096 14.6299C186.236 14.5765 186.356 14.5199 186.456 14.4599C186.556 14.3999 186.639 14.3465 186.706 14.2999C186.779 14.2465 186.843 14.2199 186.896 14.2199C186.989 14.2199 187.073 14.2765 187.146 14.3899L187.666 15.2399C187.359 15.5265 186.989 15.7532 186.556 15.9199C186.123 16.0799 185.676 16.1599 185.216 16.1599C184.416 16.1599 183.799 15.9365 183.366 15.4899C182.939 15.0432 182.726 14.3999 182.726 13.5599V7.35988H181.506C181.399 7.35988 181.309 7.32988 181.236 7.26988C181.163 7.20321 181.126 7.10321 181.126 6.96988V6.25988L182.786 6.03988L183.196 2.91988C183.216 2.81988 183.259 2.73988 183.326 2.67988C183.399 2.61321 183.493 2.57988 183.606 2.57988H184.506V6.06988H189.276L189.686 2.91988C189.706 2.81988 189.749 2.73988 189.816 2.67988C189.889 2.61321 189.983 2.57988 190.096 2.57988H190.996V6.06988H197.796V15.9999ZM198.206 2.61988C198.206 2.79321 198.169 2.95654 198.096 3.10988C198.029 3.25654 197.936 3.38654 197.816 3.49988C197.703 3.61321 197.569 3.70321 197.416 3.76988C197.263 3.83654 197.099 3.86988 196.926 3.86988C196.753 3.86988 196.589 3.83654 196.436 3.76988C196.289 3.70321 196.159 3.61321 196.046 3.49988C195.933 3.38654 195.843 3.25654 195.776 3.10988C195.709 2.95654 195.676 2.79321 195.676 2.61988C195.676 2.44654 195.709 2.28321 195.776 2.12988C195.843 1.96988 195.933 1.83321 196.046 1.71988C196.159 1.59988 196.289 1.50654 196.436 1.43988C196.589 1.37321 196.753 1.33988 196.926 1.33988C197.099 1.33988 197.263 1.37321 197.416 1.43988C197.569 1.50654 197.703 1.59988 197.816 1.71988C197.936 1.83321 198.029 1.96988 198.096 2.12988C198.169 2.28321 198.206 2.44654 198.206 2.61988ZM203.829 16.1599C203.029 16.1599 202.413 15.9365 201.979 15.4899C201.553 15.0432 201.339 14.3999 201.339 13.5599V7.35988H200.119C200.013 7.35988 199.923 7.32988 199.849 7.26988C199.776 7.20321 199.739 7.10321 199.739 6.96988V6.25988L201.399 6.04988L201.809 2.91988C201.829 2.81988 201.873 2.73988 201.939 2.67988C202.013 2.61321 202.106 2.57988 202.219 2.57988H203.119V6.06988H206.049V7.35988H203.119V13.4399C203.119 13.8665 203.223 14.1832 203.429 14.3899C203.636 14.5965 203.903 14.6999 204.229 14.6999C204.416 14.6999 204.576 14.6765 204.709 14.6299C204.849 14.5765 204.969 14.5199 205.069 14.4599C205.169 14.3999 205.253 14.3465 205.319 14.2999C205.393 14.2465 205.456 14.2199 205.509 14.2199C205.603 14.2199 205.686 14.2765 205.759 14.3899L206.279 15.2399C205.973 15.5265 205.603 15.7532 205.169 15.9199C204.736 16.0799 204.289 16.1599 203.829 16.1599ZM212.099 5.70988C212.839 5.70988 213.505 5.83321 214.099 6.07988C214.692 6.32654 215.199 6.67654 215.619 7.12988C216.039 7.58321 216.359 8.13321 216.579 8.77988C216.805 9.41988 216.919 10.1365 216.919 10.9299C216.919 11.7299 216.805 12.4499 216.579 13.0899C216.359 13.7299 216.039 14.2765 215.619 14.7299C215.199 15.1832 214.692 15.5332 214.099 15.7799C213.505 16.0199 212.839 16.1399 212.099 16.1399C211.352 16.1399 210.679 16.0199 210.079 15.7799C209.485 15.5332 208.979 15.1832 208.559 14.7299C208.139 14.2765 207.815 13.7299 207.589 13.0899C207.369 12.4499 207.259 11.7299 207.259 10.9299C207.259 10.1365 207.369 9.41988 207.589 8.77988C207.815 8.13321 208.139 7.58321 208.559 7.12988C208.979 6.67654 209.485 6.32654 210.079 6.07988C210.679 5.83321 211.352 5.70988 212.099 5.70988ZM212.099 14.7499C213.099 14.7499 213.845 14.4165 214.339 13.7499C214.832 13.0765 215.079 12.1399 215.079 10.9399C215.079 9.73321 214.832 8.79321 214.339 8.11988C213.845 7.44654 213.099 7.10988 212.099 7.10988C211.592 7.10988 211.149 7.19654 210.769 7.36988C210.395 7.54321 210.082 7.79321 209.829 8.11988C209.582 8.44654 209.395 8.84988 209.269 9.32988C209.149 9.80321 209.089 10.3399 209.089 10.9399C209.089 12.1399 209.335 13.0765 209.829 13.7499C210.329 14.4165 211.085 14.7499 212.099 14.7499ZM220.866 7.89988C221.186 7.20654 221.58 6.66654 222.046 6.27988C222.513 5.88654 223.083 5.68988 223.756 5.68988C223.97 5.68988 224.173 5.71321 224.366 5.75988C224.566 5.80654 224.743 5.87988 224.896 5.97988L224.766 7.30988C224.726 7.47654 224.626 7.55988 224.466 7.55988C224.373 7.55988 224.236 7.53988 224.056 7.49988C223.876 7.45988 223.673 7.43988 223.446 7.43988C223.126 7.43988 222.84 7.48654 222.586 7.57988C222.34 7.67321 222.116 7.81321 221.916 7.99988C221.723 8.17988 221.546 8.40654 221.386 8.67988C221.233 8.94654 221.093 9.25321 220.966 9.59988V15.9999H219.176V5.86988H220.196C220.39 5.86988 220.523 5.90654 220.596 5.97988C220.67 6.05321 220.72 6.17988 220.746 6.35988L220.866 7.89988ZM237.749 8.27988C237.416 7.83321 237.056 7.52321 236.669 7.34988C236.282 7.16988 235.849 7.07988 235.369 7.07988C234.429 7.07988 233.706 7.41654 233.199 8.08988C232.692 8.76321 232.439 9.72321 232.439 10.9699C232.439 11.6299 232.496 12.1965 232.609 12.6699C232.722 13.1365 232.889 13.5232 233.109 13.8299C233.329 14.1299 233.599 14.3499 233.919 14.4899C234.239 14.6299 234.602 14.6999 235.009 14.6999C235.596 14.6999 236.106 14.5665 236.539 14.2999C236.979 14.0332 237.382 13.6565 237.749 13.1699V8.27988ZM239.529 1.26988V15.9999H238.469C238.216 15.9999 238.056 15.8765 237.989 15.6299L237.829 14.3999C237.396 14.9199 236.902 15.3399 236.349 15.6599C235.796 15.9799 235.156 16.1399 234.429 16.1399C233.849 16.1399 233.322 16.0299 232.849 15.8099C232.376 15.5832 231.972 15.2532 231.639 14.8199C231.306 14.3865 231.049 13.8465 230.869 13.1999C230.689 12.5532 230.599 11.8099 230.599 10.9699C230.599 10.2232 230.699 9.52988 230.899 8.88988C231.099 8.24321 231.386 7.68321 231.759 7.20988C232.132 6.73654 232.589 6.36654 233.129 6.09988C233.676 5.82654 234.289 5.68988 234.969 5.68988C235.589 5.68988 236.119 5.79654 236.559 6.00988C237.006 6.21654 237.402 6.50654 237.749 6.87988V1.26988H239.529ZM250.67 5.86988V15.9999H249.61C249.357 15.9999 249.197 15.8765 249.13 15.6299L248.99 14.5399C248.55 15.0265 248.057 15.4199 247.51 15.7199C246.964 16.0132 246.337 16.1599 245.63 16.1599C245.077 16.1599 244.587 16.0699 244.16 15.8899C243.74 15.7032 243.387 15.4432 243.1 15.1099C242.814 14.7765 242.597 14.3732 242.45 13.8999C242.31 13.4265 242.24 12.9032 242.24 12.3299V5.86988H244.02V12.3299C244.02 13.0965 244.194 13.6899 244.54 14.1099C244.894 14.5299 245.43 14.7399 246.15 14.7399C246.677 14.7399 247.167 14.6165 247.62 14.3699C248.08 14.1165 248.504 13.7699 248.89 13.3299V5.86988H250.67ZM255.373 5.86988V15.9999H253.593V5.86988H255.373ZM255.753 2.68988C255.753 2.86321 255.716 3.02654 255.643 3.17988C255.576 3.32654 255.483 3.45988 255.363 3.57988C255.249 3.69321 255.113 3.78321 254.953 3.84988C254.799 3.91654 254.636 3.94988 254.463 3.94988C254.289 3.94988 254.126 3.91654 253.973 3.84988C253.826 3.78321 253.696 3.69321 253.583 3.57988C253.469 3.45988 253.379 3.32654 253.313 3.17988C253.246 3.02654 253.213 2.86321 253.213 2.68988C253.213 2.51654 253.246 2.35321 253.313 2.19988C253.379 2.03988 253.469 1.90321 253.583 1.78988C253.696 1.66988 253.826 1.57654 253.973 1.50988C254.126 1.44321 254.289 1.40988 254.463 1.40988C254.636 1.40988 254.799 1.44321 254.953 1.50988C255.113 1.57654 255.249 1.66988 255.363 1.78988C255.483 1.90321 255.576 2.03988 255.643 2.19988C255.716 2.35321 255.753 2.51654 255.753 2.68988ZM260.438 1.66988V7.38988C260.438 7.68988 260.431 7.98321 260.418 8.26988C260.404 8.55654 260.388 8.84654 260.368 9.13988C260.348 9.42654 260.321 9.72321 260.288 10.0299C260.261 10.3299 260.228 10.6532 260.188 10.9999H258.988C258.948 10.6532 258.911 10.3299 258.878 10.0299C258.851 9.72321 258.828 9.42654 258.808 9.13988C258.788 8.84654 258.771 8.55654 258.758 8.26988C258.744 7.98321 258.738 7.68988 258.738 7.38988V1.66988H260.438ZM258.308 14.8999C258.308 14.7265 258.338 14.5632 258.398 14.4099C258.464 14.2565 258.554 14.1232 258.668 14.0099C258.781 13.8965 258.911 13.8065 259.058 13.7399C259.211 13.6732 259.378 13.6399 259.558 13.6399C259.731 13.6399 259.891 13.6732 260.038 13.7399C260.191 13.8065 260.324 13.8965 260.438 14.0099C260.551 14.1232 260.641 14.2565 260.708 14.4099C260.774 14.5632 260.808 14.7265 260.808 14.8999C260.808 15.0799 260.774 15.2465 260.708 15.3999C260.641 15.5465 260.551 15.6765 260.438 15.7899C260.324 15.9032 260.191 15.9899 260.038 16.0499C259.891 16.1165 259.731 16.1499 259.558 16.1499C259.378 16.1499 259.211 16.1165 259.058 16.0499C258.911 15.9899 258.781 15.9032 258.668 15.7899C258.554 15.6765 258.464 15.5465 258.398 15.3999C258.338 15.2465 258.308 15.0799 258.308 14.8999ZM270.306 8.83988C270.306 9.71988 270.426 10.5099 270.666 11.2099C270.906 11.9032 271.246 12.4932 271.686 12.9799C272.132 13.4599 272.669 13.8299 273.296 14.0899C273.922 14.3432 274.619 14.4699 275.386 14.4699C276.159 14.4699 276.859 14.3432 277.486 14.0899C278.112 13.8299 278.646 13.4599 279.086 12.9799C279.526 12.4932 279.866 11.9032 280.106 11.2099C280.346 10.5099 280.466 9.71988 280.466 8.83988C280.466 7.95988 280.346 7.16988 280.106 6.46988C279.866 5.76988 279.526 5.17988 279.086 4.69988C278.646 4.21321 278.112 3.83988 277.486 3.57988C276.859 3.31988 276.159 3.18988 275.386 3.18988C274.619 3.18988 273.922 3.31988 273.296 3.57988C272.669 3.83988 272.132 4.21321 271.686 4.69988C271.246 5.17988 270.906 5.76988 270.666 6.46988C270.426 7.16988 270.306 7.95988 270.306 8.83988ZM283.116 18.9599H281.516C281.276 18.9599 281.062 18.9265 280.876 18.8599C280.689 18.7932 280.519 18.6765 280.366 18.5099L277.856 15.7699C277.096 16.0232 276.272 16.1499 275.386 16.1499C274.332 16.1499 273.372 15.9732 272.506 15.6199C271.639 15.2599 270.896 14.7565 270.276 14.1099C269.656 13.4632 269.176 12.6932 268.836 11.7999C268.496 10.8999 268.326 9.91321 268.326 8.83988C268.326 7.76654 268.496 6.78321 268.836 5.88988C269.176 4.98988 269.656 4.21654 270.276 3.56988C270.896 2.91654 271.639 2.40988 272.506 2.04988C273.372 1.68988 274.332 1.50988 275.386 1.50988C276.439 1.50988 277.399 1.68988 278.266 2.04988C279.139 2.40988 279.886 2.91654 280.506 3.56988C281.126 4.21654 281.606 4.98988 281.946 5.88988C282.286 6.78321 282.456 7.76654 282.456 8.83988C282.456 9.51321 282.386 10.1532 282.246 10.7599C282.112 11.3665 281.916 11.9332 281.656 12.4599C281.396 12.9799 281.079 13.4532 280.706 13.8799C280.332 14.3065 279.912 14.6765 279.446 14.9899L283.116 18.9599ZM292.975 5.86988V15.9999H291.915C291.662 15.9999 291.502 15.8765 291.435 15.6299L291.295 14.5399C290.855 15.0265 290.362 15.4199 289.815 15.7199C289.269 16.0132 288.642 16.1599 287.935 16.1599C287.382 16.1599 286.892 16.0699 286.465 15.8899C286.045 15.7032 285.692 15.4432 285.405 15.1099C285.119 14.7765 284.902 14.3732 284.755 13.8999C284.615 13.4265 284.545 12.9032 284.545 12.3299V5.86988H286.325V12.3299C286.325 13.0965 286.499 13.6899 286.845 14.1099C287.199 14.5299 287.735 14.7399 288.455 14.7399C288.982 14.7399 289.472 14.6165 289.925 14.3699C290.385 14.1165 290.809 13.7699 291.195 13.3299V5.86988H292.975ZM297.678 5.86988V15.9999H295.898V5.86988H297.678ZM298.058 2.68988C298.058 2.86321 298.021 3.02654 297.948 3.17988C297.881 3.32654 297.788 3.45988 297.668 3.57988C297.554 3.69321 297.418 3.78321 297.258 3.84988C297.104 3.91654 296.941 3.94988 296.768 3.94988C296.594 3.94988 296.431 3.91654 296.278 3.84988C296.131 3.78321 296.001 3.69321 295.888 3.57988C295.774 3.45988 295.684 3.32654 295.618 3.17988C295.551 3.02654 295.518 2.86321 295.518 2.68988C295.518 2.51654 295.551 2.35321 295.618 2.19988C295.684 2.03988 295.774 1.90321 295.888 1.78988C296.001 1.66988 296.131 1.57654 296.278 1.50988C296.431 1.44321 296.594 1.40988 296.768 1.40988C296.941 1.40988 297.104 1.44321 297.258 1.50988C297.418 1.57654 297.554 1.66988 297.668 1.78988C297.788 1.90321 297.881 2.03988 297.948 2.19988C298.021 2.35321 298.058 2.51654 298.058 2.68988ZM306.502 7.53988C306.422 7.68654 306.299 7.75988 306.132 7.75988C306.032 7.75988 305.919 7.72321 305.792 7.64988C305.666 7.57654 305.509 7.49654 305.322 7.40988C305.142 7.31654 304.926 7.23321 304.672 7.15988C304.419 7.07988 304.119 7.03988 303.772 7.03988C303.472 7.03988 303.202 7.07988 302.962 7.15988C302.722 7.23321 302.516 7.33654 302.342 7.46988C302.176 7.60321 302.046 7.75988 301.952 7.93988C301.866 8.11321 301.822 8.30321 301.822 8.50988C301.822 8.76988 301.896 8.98654 302.042 9.15988C302.196 9.33321 302.396 9.48321 302.642 9.60988C302.889 9.73654 303.169 9.84988 303.482 9.94988C303.796 10.0432 304.116 10.1465 304.442 10.2599C304.776 10.3665 305.099 10.4865 305.412 10.6199C305.726 10.7532 306.006 10.9199 306.252 11.1199C306.499 11.3199 306.696 11.5665 306.842 11.8599C306.996 12.1465 307.072 12.4932 307.072 12.8999C307.072 13.3665 306.989 13.7999 306.822 14.1999C306.656 14.5932 306.409 14.9365 306.082 15.2299C305.756 15.5165 305.356 15.7432 304.882 15.9099C304.409 16.0765 303.862 16.1599 303.242 16.1599C302.536 16.1599 301.896 16.0465 301.322 15.8199C300.749 15.5865 300.262 15.2899 299.862 14.9299L300.282 14.2499C300.336 14.1632 300.399 14.0965 300.472 14.0499C300.546 14.0032 300.639 13.9799 300.752 13.9799C300.872 13.9799 300.999 14.0265 301.132 14.1199C301.266 14.2132 301.426 14.3165 301.612 14.4299C301.806 14.5432 302.039 14.6465 302.312 14.7399C302.586 14.8332 302.926 14.8799 303.332 14.8799C303.679 14.8799 303.982 14.8365 304.242 14.7499C304.502 14.6565 304.719 14.5332 304.892 14.3799C305.066 14.2265 305.192 14.0499 305.272 13.8499C305.359 13.6499 305.402 13.4365 305.402 13.2099C305.402 12.9299 305.326 12.6999 305.172 12.5199C305.026 12.3332 304.829 12.1765 304.582 12.0499C304.336 11.9165 304.052 11.8032 303.732 11.7099C303.419 11.6099 303.096 11.5065 302.762 11.3999C302.436 11.2932 302.112 11.1732 301.792 11.0399C301.479 10.8999 301.199 10.7265 300.952 10.5199C300.706 10.3132 300.506 10.0599 300.352 9.75988C300.206 9.45321 300.132 9.08321 300.132 8.64988C300.132 8.26321 300.212 7.89321 300.372 7.53988C300.532 7.17988 300.766 6.86654 301.072 6.59988C301.379 6.32654 301.756 6.10988 302.202 5.94988C302.649 5.78988 303.159 5.70988 303.732 5.70988C304.399 5.70988 304.996 5.81654 305.522 6.02988C306.056 6.23654 306.516 6.52321 306.902 6.88988L306.502 7.53988ZM315.855 8.26988C315.535 7.84321 315.178 7.53988 314.785 7.35988C314.391 7.17321 313.955 7.07988 313.475 7.07988C312.535 7.07988 311.811 7.41654 311.305 8.08988C310.798 8.76321 310.545 9.72321 310.545 10.9699C310.545 11.6299 310.601 12.1965 310.715 12.6699C310.828 13.1365 310.995 13.5232 311.215 13.8299C311.435 14.1299 311.705 14.3499 312.025 14.4899C312.345 14.6299 312.708 14.6999 313.115 14.6999C313.701 14.6999 314.211 14.5665 314.645 14.2999C315.085 14.0332 315.488 13.6565 315.855 13.1699V8.26988ZM317.635 5.86988V19.4299H315.855V14.4899C315.435 14.9832 314.951 15.3832 314.405 15.6899C313.858 15.9899 313.235 16.1399 312.535 16.1399C311.955 16.1399 311.428 16.0299 310.955 15.8099C310.481 15.5832 310.078 15.2532 309.745 14.8199C309.411 14.3865 309.155 13.8465 308.975 13.1999C308.795 12.5532 308.705 11.8099 308.705 10.9699C308.705 10.2232 308.805 9.52988 309.005 8.88988C309.205 8.24321 309.491 7.68321 309.865 7.20988C310.238 6.73654 310.695 6.36654 311.235 6.09988C311.781 5.82654 312.395 5.68988 313.075 5.68988C313.735 5.68988 314.295 5.80654 314.755 6.03988C315.215 6.27321 315.621 6.59988 315.975 7.01988L316.095 6.23988C316.161 5.99321 316.321 5.86988 316.575 5.86988H317.635ZM328.776 5.86988V15.9999H327.716C327.463 15.9999 327.303 15.8765 327.236 15.6299L327.096 14.5399C326.656 15.0265 326.163 15.4199 325.616 15.7199C325.069 16.0132 324.443 16.1599 323.736 16.1599C323.183 16.1599 322.693 16.0699 322.266 15.8899C321.846 15.7032 321.493 15.4432 321.206 15.1099C320.919 14.7765 320.703 14.3732 320.556 13.8999C320.416 13.4265 320.346 12.9032 320.346 12.3299V5.86988H322.126V12.3299C322.126 13.0965 322.299 13.6899 322.646 14.1099C322.999 14.5299 323.536 14.7399 324.256 14.7399C324.783 14.7399 325.273 14.6165 325.726 14.3699C326.186 14.1165 326.609 13.7699 326.996 13.3299V5.86988H328.776ZM338.378 9.82988C338.378 9.41654 338.318 9.03988 338.198 8.69988C338.085 8.35321 337.915 8.05654 337.688 7.80988C337.468 7.55654 337.198 7.36321 336.878 7.22988C336.558 7.08988 336.195 7.01988 335.788 7.01988C334.935 7.01988 334.258 7.26988 333.758 7.76988C333.265 8.26321 332.958 8.94988 332.838 9.82988H338.378ZM339.818 14.5799C339.598 14.8465 339.335 15.0799 339.028 15.2799C338.722 15.4732 338.392 15.6332 338.038 15.7599C337.692 15.8865 337.332 15.9799 336.958 16.0399C336.585 16.1065 336.215 16.1399 335.848 16.1399C335.148 16.1399 334.502 16.0232 333.908 15.7899C333.322 15.5499 332.812 15.2032 332.378 14.7499C331.952 14.2899 331.618 13.7232 331.378 13.0499C331.138 12.3765 331.018 11.6032 331.018 10.7299C331.018 10.0232 331.125 9.36321 331.338 8.74988C331.558 8.13654 331.872 7.60654 332.278 7.15988C332.685 6.70654 333.182 6.35321 333.768 6.09988C334.355 5.83988 335.015 5.70988 335.748 5.70988C336.355 5.70988 336.915 5.81321 337.428 6.01988C337.948 6.21988 338.395 6.51321 338.768 6.89988C339.148 7.27988 339.445 7.75321 339.658 8.31988C339.872 8.87988 339.978 9.51988 339.978 10.2399C339.978 10.5199 339.948 10.7065 339.888 10.7999C339.828 10.8932 339.715 10.9399 339.548 10.9399H332.778C332.798 11.5799 332.885 12.1365 333.038 12.6099C333.198 13.0832 333.418 13.4799 333.698 13.7999C333.978 14.1132 334.312 14.3499 334.698 14.5099C335.085 14.6632 335.518 14.7399 335.998 14.7399C336.445 14.7399 336.828 14.6899 337.148 14.5899C337.475 14.4832 337.755 14.3699 337.988 14.2499C338.222 14.1299 338.415 14.0199 338.568 13.9199C338.728 13.8132 338.865 13.7599 338.978 13.7599C339.125 13.7599 339.238 13.8165 339.318 13.9299L339.818 14.5799ZM41.3525 29.8699L37.2225 39.9999H35.6225L31.4925 29.8699H32.9425C33.0892 29.8699 33.2092 29.9065 33.3025 29.9799C33.3958 30.0532 33.4592 30.1399 33.4925 30.2399L36.0625 36.7599C36.1425 37.0065 36.2125 37.2465 36.2725 37.4799C36.3325 37.7132 36.3892 37.9465 36.4425 38.1799C36.4958 37.9465 36.5525 37.7132 36.6125 37.4799C36.6725 37.2465 36.7458 37.0065 36.8325 36.7599L39.4325 30.2399C39.4725 30.1332 39.5392 30.0465 39.6325 29.9799C39.7258 29.9065 39.8358 29.8699 39.9625 29.8699H41.3525ZM44.865 29.8699V39.9999H43.085V29.8699H44.865ZM45.245 26.6899C45.245 26.8632 45.2083 27.0265 45.135 27.1799C45.0683 27.3265 44.975 27.4599 44.855 27.5799C44.7417 27.6932 44.605 27.7832 44.445 27.8499C44.2917 27.9165 44.1283 27.9499 43.955 27.9499C43.7817 27.9499 43.6183 27.9165 43.465 27.8499C43.3183 27.7832 43.1883 27.6932 43.075 27.5799C42.9617 27.4599 42.8717 27.3265 42.805 27.1799C42.7383 27.0265 42.705 26.8632 42.705 26.6899C42.705 26.5165 42.7383 26.3532 42.805 26.1999C42.8717 26.0399 42.9617 25.9032 43.075 25.7899C43.1883 25.6699 43.3183 25.5765 43.465 25.5099C43.6183 25.4432 43.7817 25.4099 43.955 25.4099C44.1283 25.4099 44.2917 25.4432 44.445 25.5099C44.605 25.5765 44.7417 25.6699 44.855 25.7899C44.975 25.9032 45.0683 26.0399 45.135 26.1999C45.2083 26.3532 45.245 26.5165 45.245 26.6899ZM56.4697 29.8699L52.3397 39.9999H50.7397L46.6097 29.8699H48.0597C48.2064 29.8699 48.3264 29.9065 48.4197 29.9799C48.513 30.0532 48.5764 30.1399 48.6097 30.2399L51.1797 36.7599C51.2597 37.0065 51.3297 37.2465 51.3897 37.4799C51.4497 37.7132 51.5064 37.9465 51.5597 38.1799C51.613 37.9465 51.6697 37.7132 51.7297 37.4799C51.7897 37.2465 51.863 37.0065 51.9497 36.7599L54.5497 30.2399C54.5897 30.1332 54.6564 30.0465 54.7497 29.9799C54.843 29.9065 54.953 29.8699 55.0797 29.8699H56.4697ZM64.6088 33.8299C64.6088 33.4165 64.5488 33.0399 64.4288 32.6999C64.3154 32.3532 64.1454 32.0565 63.9188 31.8099C63.6988 31.5565 63.4288 31.3632 63.1088 31.2299C62.7888 31.0899 62.4254 31.0199 62.0188 31.0199C61.1654 31.0199 60.4888 31.2699 59.9888 31.7699C59.4954 32.2632 59.1888 32.9499 59.0688 33.8299H64.6088ZM66.0488 38.5799C65.8288 38.8465 65.5654 39.0799 65.2588 39.2799C64.9521 39.4732 64.6221 39.6332 64.2688 39.7599C63.9221 39.8865 63.5621 39.9799 63.1888 40.0399C62.8154 40.1065 62.4454 40.1399 62.0788 40.1399C61.3788 40.1399 60.7321 40.0232 60.1388 39.7899C59.5521 39.5499 59.0421 39.2032 58.6088 38.7499C58.1821 38.2899 57.8488 37.7232 57.6088 37.0499C57.3688 36.3765 57.2488 35.6032 57.2488 34.7299C57.2488 34.0232 57.3554 33.3632 57.5688 32.7499C57.7888 32.1365 58.1021 31.6065 58.5088 31.1599C58.9154 30.7065 59.4121 30.3532 59.9988 30.0999C60.5854 29.8399 61.2454 29.7099 61.9788 29.7099C62.5854 29.7099 63.1454 29.8132 63.6588 30.0199C64.1788 30.2199 64.6254 30.5132 64.9988 30.8999C65.3788 31.2799 65.6754 31.7532 65.8888 32.3199C66.1021 32.8799 66.2088 33.5199 66.2088 34.2399C66.2088 34.5199 66.1788 34.7065 66.1188 34.7999C66.0588 34.8932 65.9454 34.9399 65.7788 34.9399H59.0088C59.0288 35.5799 59.1154 36.1365 59.2688 36.6099C59.4288 37.0832 59.6488 37.4799 59.9288 37.7999C60.2088 38.1132 60.5421 38.3499 60.9288 38.5099C61.3154 38.6632 61.7488 38.7399 62.2288 38.7399C62.6754 38.7399 63.0588 38.6899 63.3788 38.5899C63.7054 38.4832 63.9854 38.3699 64.2188 38.2499C64.4521 38.1299 64.6454 38.0199 64.7988 37.9199C64.9588 37.8132 65.0954 37.7599 65.2088 37.7599C65.3554 37.7599 65.4688 37.8165 65.5488 37.9299L66.0488 38.5799ZM70.0852 31.8999C70.4052 31.2065 70.7985 30.6665 71.2652 30.2799C71.7318 29.8865 72.3018 29.6899 72.9752 29.6899C73.1885 29.6899 73.3918 29.7132 73.5852 29.7599C73.7852 29.8065 73.9618 29.8799 74.1152 29.9799L73.9852 31.3099C73.9452 31.4765 73.8452 31.5599 73.6852 31.5599C73.5918 31.5599 73.4552 31.5399 73.2752 31.4999C73.0952 31.4599 72.8918 31.4399 72.6652 31.4399C72.3452 31.4399 72.0585 31.4865 71.8052 31.5799C71.5585 31.6732 71.3352 31.8132 71.1352 31.9999C70.9418 32.1799 70.7652 32.4065 70.6052 32.6799C70.4518 32.9465 70.3118 33.2532 70.1852 33.5999V39.9999H68.3952V29.8699H69.4152C69.6085 29.8699 69.7418 29.9065 69.8152 29.9799C69.8885 30.0532 69.9385 30.1799 69.9652 30.3599L70.0852 31.8999ZM77.3703 31.8999C77.6903 31.2065 78.0837 30.6665 78.5503 30.2799C79.017 29.8865 79.587 29.6899 80.2603 29.6899C80.4737 29.6899 80.677 29.7132 80.8703 29.7599C81.0703 29.8065 81.247 29.8799 81.4003 29.9799L81.2703 31.3099C81.2303 31.4765 81.1303 31.5599 80.9703 31.5599C80.877 31.5599 80.7403 31.5399 80.5603 31.4999C80.3803 31.4599 80.177 31.4399 79.9503 31.4399C79.6303 31.4399 79.3437 31.4865 79.0903 31.5799C78.8437 31.6732 78.6203 31.8132 78.4203 31.9999C78.227 32.1799 78.0503 32.4065 77.8903 32.6799C77.737 32.9465 77.597 33.2532 77.4703 33.5999V39.9999H75.6803V29.8699H76.7003C76.8937 29.8699 77.027 29.9065 77.1003 29.9799C77.1737 30.0532 77.2237 30.1799 77.2503 30.3599L77.3703 31.8999ZM88.2992 35.4399C87.4792 35.4665 86.7792 35.5332 86.1992 35.6399C85.6259 35.7399 85.1559 35.8732 84.7892 36.0399C84.4292 36.2065 84.1659 36.4032 83.9992 36.6299C83.8392 36.8565 83.7592 37.1099 83.7592 37.3899C83.7592 37.6565 83.8026 37.8865 83.8892 38.0799C83.9759 38.2732 84.0926 38.4332 84.2392 38.5599C84.3926 38.6799 84.5692 38.7699 84.7692 38.8299C84.9759 38.8832 85.1959 38.9099 85.4292 38.9099C85.7426 38.9099 86.0292 38.8799 86.2892 38.8199C86.5492 38.7532 86.7926 38.6599 87.0192 38.5399C87.2526 38.4199 87.4726 38.2765 87.6792 38.1099C87.8926 37.9432 88.0992 37.7532 88.2992 37.5399V35.4399ZM82.5492 31.2999C83.1092 30.7599 83.7126 30.3565 84.3592 30.0899C85.0059 29.8232 85.7226 29.6899 86.5092 29.6899C87.0759 29.6899 87.5792 29.7832 88.0192 29.9699C88.4592 30.1565 88.8292 30.4165 89.1292 30.7499C89.4292 31.0832 89.6559 31.4865 89.8092 31.9599C89.9626 32.4332 90.0392 32.9532 90.0392 33.5199V39.9999H89.2492C89.0759 39.9999 88.9426 39.9732 88.8492 39.9199C88.7559 39.8599 88.6826 39.7465 88.6292 39.5799L88.4292 38.6199C88.1626 38.8665 87.9026 39.0865 87.6492 39.2799C87.3959 39.4665 87.1292 39.6265 86.8492 39.7599C86.5692 39.8865 86.2692 39.9832 85.9492 40.0499C85.6359 40.1232 85.2859 40.1599 84.8992 40.1599C84.5059 40.1599 84.1359 40.1065 83.7892 39.9999C83.4426 39.8865 83.1392 39.7199 82.8792 39.4999C82.6259 39.2799 82.4226 39.0032 82.2692 38.6699C82.1226 38.3299 82.0492 37.9299 82.0492 37.4699C82.0492 37.0699 82.1592 36.6865 82.3792 36.3199C82.5992 35.9465 82.9559 35.6165 83.4492 35.3299C83.9426 35.0432 84.5859 34.8099 85.3792 34.6299C86.1726 34.4432 87.1459 34.3365 88.2992 34.3099V33.5199C88.2992 32.7332 88.1292 32.1399 87.7892 31.7399C87.4492 31.3332 86.9526 31.1299 86.2992 31.1299C85.8592 31.1299 85.4892 31.1865 85.1892 31.2999C84.8959 31.4065 84.6392 31.5299 84.4192 31.6699C84.2059 31.8032 84.0192 31.9265 83.8592 32.0399C83.7059 32.1465 83.5526 32.1999 83.3992 32.1999C83.2792 32.1999 83.1759 32.1699 83.0892 32.1099C83.0026 32.0432 82.9292 31.9632 82.8692 31.8699L82.5492 31.2999ZM99.5478 31.3399C99.7678 31.0932 100.001 30.8699 100.248 30.6699C100.494 30.4699 100.754 30.2999 101.028 30.1599C101.308 30.0132 101.601 29.9032 101.908 29.8299C102.221 29.7499 102.558 29.7099 102.918 29.7099C103.471 29.7099 103.958 29.8032 104.378 29.9899C104.804 30.1699 105.158 30.4299 105.438 30.7699C105.724 31.1032 105.941 31.5065 106.088 31.9799C106.234 32.4532 106.308 32.9765 106.308 33.5499V39.9999H104.518V33.5499C104.518 32.7832 104.341 32.1899 103.988 31.7699C103.641 31.3432 103.111 31.1299 102.398 31.1299C101.871 31.1299 101.378 31.2565 100.918 31.5099C100.464 31.7632 100.044 32.1065 99.6578 32.5399V39.9999H97.8678V29.8699H98.9378C99.1912 29.8699 99.3478 29.9932 99.4078 30.2399L99.5478 31.3399ZM117.35 29.8699V39.9999H116.29C116.037 39.9999 115.877 39.8765 115.81 39.6299L115.67 38.5399C115.23 39.0265 114.737 39.4199 114.19 39.7199C113.644 40.0132 113.017 40.1599 112.31 40.1599C111.757 40.1599 111.267 40.0699 110.84 39.8899C110.42 39.7032 110.067 39.4432 109.78 39.1099C109.494 38.7765 109.277 38.3732 109.13 37.8999C108.99 37.4265 108.92 36.9032 108.92 36.3299V29.8699H110.7V36.3299C110.7 37.0965 110.874 37.6899 111.22 38.1099C111.574 38.5299 112.11 38.7399 112.83 38.7399C113.357 38.7399 113.847 38.6165 114.3 38.3699C114.76 38.1165 115.184 37.7699 115.57 37.3299V29.8699H117.35ZM121.853 31.3399C122.073 31.0932 122.306 30.8699 122.553 30.6699C122.799 30.4699 123.059 30.2999 123.333 30.1599C123.613 30.0132 123.906 29.9032 124.213 29.8299C124.526 29.7499 124.863 29.7099 125.223 29.7099C125.776 29.7099 126.263 29.8032 126.683 29.9899C127.109 30.1699 127.463 30.4299 127.743 30.7699C128.029 31.1032 128.246 31.5065 128.393 31.9799C128.539 32.4532 128.613 32.9765 128.613 33.5499V39.9999H126.823V33.5499C126.823 32.7832 126.646 32.1899 126.293 31.7699C125.946 31.3432 125.416 31.1299 124.703 31.1299C124.176 31.1299 123.683 31.2565 123.223 31.5099C122.769 31.7632 122.349 32.1065 121.963 32.5399V39.9999H120.173V29.8699H121.243C121.496 29.8699 121.653 29.9932 121.713 30.2399L121.853 31.3399ZM138.375 31.6699C138.322 31.7432 138.268 31.7999 138.215 31.8399C138.162 31.8799 138.088 31.8999 137.995 31.8999C137.895 31.8999 137.785 31.8599 137.665 31.7799C137.545 31.6932 137.395 31.5999 137.215 31.4999C137.042 31.3999 136.825 31.3099 136.565 31.2299C136.312 31.1432 135.998 31.0999 135.625 31.0999C135.125 31.0999 134.685 31.1899 134.305 31.3699C133.925 31.5432 133.605 31.7965 133.345 32.1299C133.092 32.4632 132.898 32.8665 132.765 33.3399C132.638 33.8132 132.575 34.3432 132.575 34.9299C132.575 35.5432 132.645 36.0899 132.785 36.5699C132.925 37.0432 133.122 37.4432 133.375 37.7699C133.635 38.0899 133.945 38.3365 134.305 38.5099C134.672 38.6765 135.082 38.7599 135.535 38.7599C135.968 38.7599 136.325 38.7099 136.605 38.6099C136.885 38.5032 137.115 38.3865 137.295 38.2599C137.482 38.1332 137.635 38.0199 137.755 37.9199C137.882 37.8132 138.005 37.7599 138.125 37.7599C138.272 37.7599 138.385 37.8165 138.465 37.9299L138.965 38.5799C138.745 38.8532 138.495 39.0865 138.215 39.2799C137.935 39.4732 137.632 39.6365 137.305 39.7699C136.985 39.8965 136.648 39.9899 136.295 40.0499C135.942 40.1099 135.582 40.1399 135.215 40.1399C134.582 40.1399 133.992 40.0232 133.445 39.7899C132.905 39.5565 132.435 39.2199 132.035 38.7799C131.635 38.3332 131.322 37.7865 131.095 37.1399C130.868 36.4932 130.755 35.7565 130.755 34.9299C130.755 34.1765 130.858 33.4799 131.065 32.8399C131.278 32.1999 131.585 31.6499 131.985 31.1899C132.392 30.7232 132.888 30.3599 133.475 30.0999C134.068 29.8399 134.748 29.7099 135.515 29.7099C136.228 29.7099 136.855 29.8265 137.395 30.0599C137.942 30.2865 138.425 30.6099 138.845 31.0299L138.375 31.6699ZM145.993 39.9999V29.8699H147.063C147.316 29.8699 147.473 29.9932 147.533 30.2399L147.663 31.2799C148.036 30.8199 148.456 30.4432 148.923 30.1499C149.389 29.8565 149.929 29.7099 150.543 29.7099C151.223 29.7099 151.773 29.8999 152.193 30.2799C152.619 30.6599 152.926 31.1732 153.113 31.8199C153.259 31.4532 153.446 31.1365 153.673 30.8699C153.906 30.6032 154.166 30.3832 154.453 30.2099C154.739 30.0365 155.043 29.9099 155.363 29.8299C155.689 29.7499 156.019 29.7099 156.353 29.7099C156.886 29.7099 157.359 29.7965 157.773 29.9699C158.193 30.1365 158.546 30.3832 158.833 30.7099C159.126 31.0365 159.349 31.4399 159.503 31.9199C159.656 32.3932 159.733 32.9365 159.733 33.5499V39.9999H157.943V33.5499C157.943 32.7565 157.769 32.1565 157.423 31.7499C157.076 31.3365 156.576 31.1299 155.923 31.1299C155.629 31.1299 155.349 31.1832 155.083 31.2899C154.823 31.3899 154.593 31.5399 154.393 31.7399C154.193 31.9399 154.033 32.1932 153.913 32.4999C153.799 32.7999 153.743 33.1499 153.743 33.5499V39.9999H151.953V33.5499C151.953 32.7365 151.789 32.1299 151.463 31.7299C151.136 31.3299 150.659 31.1299 150.033 31.1299C149.593 31.1299 149.186 31.2499 148.813 31.4899C148.439 31.7232 148.096 32.0432 147.783 32.4499V39.9999H145.993ZM164.318 29.8699V39.9999H162.538V29.8699H164.318ZM164.698 26.6899C164.698 26.8632 164.661 27.0265 164.588 27.1799C164.521 27.3265 164.428 27.4599 164.308 27.5799C164.195 27.6932 164.058 27.7832 163.898 27.8499C163.745 27.9165 163.581 27.9499 163.408 27.9499C163.235 27.9499 163.071 27.9165 162.918 27.8499C162.771 27.7832 162.641 27.6932 162.528 27.5799C162.415 27.4599 162.325 27.3265 162.258 27.1799C162.191 27.0265 162.158 26.8632 162.158 26.6899C162.158 26.5165 162.191 26.3532 162.258 26.1999C162.325 26.0399 162.415 25.9032 162.528 25.7899C162.641 25.6699 162.771 25.5765 162.918 25.5099C163.071 25.4432 163.235 25.4099 163.408 25.4099C163.581 25.4099 163.745 25.4432 163.898 25.5099C164.058 25.5765 164.195 25.6699 164.308 25.7899C164.428 25.9032 164.521 26.0399 164.588 26.1999C164.661 26.3532 164.698 26.5165 164.698 26.6899ZM167.133 42.4199C167.079 42.3732 167.043 42.3299 167.023 42.2899C167.003 42.2499 166.993 42.1999 166.993 42.1399C166.993 42.0932 167.006 42.0465 167.033 41.9999C167.066 41.9532 167.103 41.9099 167.143 41.8699C167.209 41.7965 167.293 41.6999 167.393 41.5799C167.499 41.4599 167.606 41.3165 167.713 41.1499C167.819 40.9899 167.916 40.8099 168.003 40.6099C168.096 40.4165 168.163 40.2099 168.203 39.9899C168.183 39.9965 168.159 39.9999 168.133 39.9999C168.113 39.9999 168.093 39.9999 168.073 39.9999C167.726 39.9999 167.443 39.8865 167.223 39.6599C167.009 39.4265 166.903 39.1299 166.903 38.7699C166.903 38.4565 167.009 38.1899 167.223 37.9699C167.443 37.7499 167.733 37.6399 168.093 37.6399C168.293 37.6399 168.469 37.6765 168.623 37.7499C168.776 37.8232 168.903 37.9265 169.003 38.0599C169.109 38.1865 169.189 38.3365 169.243 38.5099C169.296 38.6765 169.323 38.8599 169.323 39.0599C169.323 39.3599 169.279 39.6732 169.193 39.9999C169.113 40.3199 168.989 40.6365 168.823 40.9499C168.663 41.2699 168.466 41.5799 168.233 41.8799C167.999 42.1799 167.733 42.4565 167.433 42.7099L167.133 42.4199ZM183.011 31.1099C182.865 31.0765 182.718 31.0565 182.571 31.0499C182.431 31.0365 182.291 31.0299 182.151 31.0299C181.751 31.0299 181.365 31.0965 180.991 31.2299C180.618 31.3565 180.268 31.5365 179.941 31.7699C179.615 32.0032 179.318 32.2832 179.051 32.6099C178.785 32.9299 178.555 33.2832 178.361 33.6699C178.175 34.0565 178.028 34.4699 177.921 34.9099C177.815 35.3432 177.761 35.7899 177.761 36.2499C177.761 37.8565 178.275 38.6599 179.301 38.6599C179.628 38.6599 179.948 38.5599 180.261 38.3599C180.575 38.1532 180.871 37.8699 181.151 37.5099C181.438 37.1432 181.701 36.7132 181.941 36.2199C182.181 35.7199 182.395 35.1732 182.581 34.5799L183.011 31.1099ZM182.331 37.3299C182.091 37.7565 181.831 38.1432 181.551 38.4899C181.278 38.8365 180.985 39.1332 180.671 39.3799C180.365 39.6199 180.038 39.8065 179.691 39.9399C179.351 40.0732 178.998 40.1399 178.631 40.1399C178.231 40.1399 177.868 40.0632 177.541 39.9099C177.215 39.7499 176.935 39.5199 176.701 39.2199C176.475 38.9132 176.298 38.5399 176.171 38.0999C176.045 37.6532 175.981 37.1432 175.981 36.5699C175.981 35.9699 176.055 35.3865 176.201 34.8199C176.355 34.2465 176.568 33.7065 176.841 33.1999C177.121 32.6932 177.455 32.2299 177.841 31.8099C178.228 31.3832 178.658 31.0165 179.131 30.7099C179.611 30.3965 180.125 30.1565 180.671 29.9899C181.218 29.8165 181.791 29.7299 182.391 29.7299C182.825 29.7299 183.245 29.7665 183.651 29.8399C184.065 29.9065 184.471 30.0265 184.871 30.1999L183.661 39.9999H182.741C182.508 39.9999 182.348 39.9399 182.261 39.8199C182.181 39.6999 182.141 39.5532 182.141 39.3799L182.331 37.3299ZM192.974 37.7799C193.227 38.1332 193.53 38.3865 193.884 38.5399C194.237 38.6865 194.597 38.7599 194.964 38.7599C195.31 38.7599 195.637 38.6865 195.944 38.5399C196.25 38.3932 196.53 38.1965 196.784 37.9499C197.037 37.6965 197.264 37.4032 197.464 37.0699C197.664 36.7299 197.83 36.3699 197.964 35.9899C198.104 35.6032 198.21 35.2065 198.284 34.7999C198.357 34.3865 198.394 33.9799 198.394 33.5799C198.394 32.7865 198.25 32.1832 197.964 31.7699C197.677 31.3565 197.274 31.1499 196.754 31.1499C196.434 31.1499 196.11 31.2499 195.784 31.4499C195.457 31.6432 195.14 31.9165 194.834 32.2699C194.534 32.6232 194.25 33.0432 193.984 33.5299C193.724 34.0165 193.497 34.5499 193.304 35.1299L192.974 37.7799ZM193.514 32.6199C193.767 32.1799 194.044 31.7832 194.344 31.4299C194.644 31.0699 194.96 30.7632 195.294 30.5099C195.627 30.2565 195.97 30.0632 196.324 29.9299C196.684 29.7899 197.05 29.7199 197.424 29.7199C198.29 29.7199 198.96 30.0332 199.434 30.6599C199.914 31.2865 200.154 32.2032 200.154 33.4099C200.154 33.9565 200.097 34.5032 199.984 35.0499C199.87 35.5965 199.707 36.1199 199.494 36.6199C199.287 37.1132 199.034 37.5765 198.734 38.0099C198.44 38.4365 198.11 38.8099 197.744 39.1299C197.384 39.4432 196.99 39.6899 196.564 39.8699C196.137 40.0499 195.69 40.1399 195.224 40.1399C194.724 40.1399 194.27 40.0432 193.864 39.8499C193.457 39.6499 193.11 39.3699 192.824 39.0099L192.284 43.4299H190.554L192.204 29.8599H193.084C193.484 29.8599 193.684 30.0599 193.684 30.4599L193.514 32.6199ZM210.7 29.8699L209.48 39.9999H208.6C208.167 39.9999 207.95 39.7865 207.95 39.3599L208.1 37.5099C207.567 38.3765 206.963 39.0332 206.29 39.4799C205.623 39.9199 204.937 40.1399 204.23 40.1399C203.803 40.1399 203.427 40.0565 203.1 39.8899C202.773 39.7165 202.507 39.4665 202.3 39.1399C202.1 38.8132 201.963 38.4132 201.89 37.9399C201.817 37.4665 201.82 36.9232 201.9 36.3099L202.66 29.8699H204.43L203.67 36.3099C203.577 37.1032 203.623 37.6932 203.81 38.0799C204.003 38.4665 204.363 38.6599 204.89 38.6599C205.197 38.6599 205.513 38.5765 205.84 38.4099C206.167 38.2432 206.48 38.0065 206.78 37.6999C207.08 37.3932 207.36 37.0232 207.62 36.5899C207.887 36.1499 208.113 35.6632 208.3 35.1299L208.93 29.8699H210.7ZM212.176 39.9999L213.966 25.2699H215.716L213.926 39.9999H212.176ZM225.908 29.8699L220.828 39.9999H219.348L216.728 29.8699H218.168C218.301 29.8699 218.408 29.9065 218.488 29.9799C218.568 30.0532 218.621 30.1399 218.648 30.2399L220.148 36.7599C220.188 37.0132 220.221 37.2632 220.248 37.5099C220.275 37.7565 220.298 38.0065 220.318 38.2599C220.391 38.0132 220.471 37.7665 220.558 37.5199C220.645 37.2732 220.745 37.0199 220.858 36.7599L223.988 30.2399C224.041 30.1332 224.115 30.0465 224.208 29.9799C224.301 29.9065 224.408 29.8699 224.528 29.8699H225.908ZM229.258 29.8699L228.038 39.9999H226.288L227.508 29.8699H229.258ZM229.938 26.6899C229.938 26.8632 229.902 27.0265 229.828 27.1799C229.762 27.3265 229.668 27.4599 229.548 27.5799C229.435 27.6932 229.302 27.7832 229.148 27.8499C229.002 27.9165 228.848 27.9499 228.688 27.9499C228.535 27.9499 228.385 27.9165 228.238 27.8499C228.092 27.7832 227.962 27.6932 227.848 27.5799C227.742 27.4599 227.655 27.3265 227.588 27.1799C227.522 27.0265 227.488 26.8632 227.488 26.6899C227.488 26.5165 227.522 26.3532 227.588 26.1999C227.655 26.0465 227.745 25.9132 227.858 25.7999C227.972 25.6799 228.102 25.5865 228.248 25.5199C228.395 25.4465 228.545 25.4099 228.698 25.4099C228.858 25.4099 229.012 25.4432 229.158 25.5099C229.312 25.5765 229.445 25.6699 229.558 25.7899C229.672 25.9032 229.762 26.0399 229.828 26.1999C229.902 26.3532 229.938 26.5165 229.938 26.6899ZM233.348 32.4299C233.888 31.5365 234.498 30.8632 235.178 30.4099C235.858 29.9499 236.558 29.7199 237.278 29.7199C237.704 29.7199 238.078 29.8065 238.398 29.9799C238.724 30.1465 238.988 30.3932 239.188 30.7199C239.394 31.0465 239.534 31.4499 239.608 31.9299C239.681 32.4032 239.681 32.9432 239.608 33.5499L238.848 39.9999H237.078L237.838 33.5499C237.931 32.7499 237.881 32.1599 237.688 31.7799C237.494 31.3932 237.138 31.1999 236.618 31.1999C236.298 31.1999 235.971 31.2865 235.638 31.4599C235.311 31.6332 234.994 31.8799 234.688 32.1999C234.381 32.5199 234.094 32.9065 233.828 33.3599C233.568 33.8065 233.344 34.3065 233.158 34.8599L232.578 39.9999H230.798L232.018 29.8599H232.898C233.298 29.8599 233.498 30.0599 233.498 30.4599L233.348 32.4299ZM248.343 31.1099C248.197 31.0765 248.05 31.0565 247.903 31.0499C247.763 31.0365 247.623 31.0299 247.483 31.0299C247.083 31.0299 246.697 31.0965 246.323 31.2299C245.95 31.3565 245.6 31.5365 245.273 31.7699C244.947 32.0032 244.65 32.2832 244.383 32.6099C244.117 32.9299 243.887 33.2832 243.693 33.6699C243.507 34.0565 243.36 34.4699 243.253 34.9099C243.147 35.3432 243.093 35.7899 243.093 36.2499C243.093 37.8565 243.607 38.6599 244.633 38.6599C244.96 38.6599 245.28 38.5599 245.593 38.3599C245.907 38.1532 246.203 37.8699 246.483 37.5099C246.77 37.1432 247.033 36.7132 247.273 36.2199C247.513 35.7199 247.727 35.1732 247.913 34.5799L248.343 31.1099ZM247.663 37.3299C247.423 37.7565 247.163 38.1432 246.883 38.4899C246.61 38.8365 246.317 39.1332 246.003 39.3799C245.697 39.6199 245.37 39.8065 245.023 39.9399C244.683 40.0732 244.33 40.1399 243.963 40.1399C243.563 40.1399 243.2 40.0632 242.873 39.9099C242.547 39.7499 242.267 39.5199 242.033 39.2199C241.807 38.9132 241.63 38.5399 241.503 38.0999C241.377 37.6532 241.313 37.1432 241.313 36.5699C241.313 35.9699 241.387 35.3865 241.533 34.8199C241.687 34.2465 241.9 33.7065 242.173 33.1999C242.453 32.6932 242.787 32.2299 243.173 31.8099C243.56 31.3832 243.99 31.0165 244.463 30.7099C244.943 30.3965 245.457 30.1565 246.003 29.9899C246.55 29.8165 247.123 29.7299 247.723 29.7299C248.157 29.7299 248.577 29.7665 248.983 29.8399C249.397 29.9065 249.803 30.0265 250.203 30.1999L248.993 39.9999H248.073C247.84 39.9999 247.68 39.9399 247.593 39.8199C247.513 39.6999 247.473 39.5532 247.473 39.3799L247.663 37.3299ZM254.158 32.6899C254.425 32.1232 254.711 31.6332 255.018 31.2199C255.331 30.7999 255.658 30.4732 255.998 30.2399C256.338 29.9999 256.688 29.8565 257.048 29.8099C257.408 29.7565 257.775 29.8099 258.148 29.9699L257.828 31.6799C256.961 31.3332 256.195 31.4599 255.528 32.0599C254.868 32.6599 254.331 33.7432 253.918 35.3099L253.358 39.9999H251.618L252.838 29.8599H253.718C254.125 29.8599 254.328 30.0599 254.328 30.4599L254.158 32.6899ZM264.77 37.7799C265.024 38.1332 265.327 38.3865 265.68 38.5399C266.034 38.6865 266.394 38.7599 266.76 38.7599C267.107 38.7599 267.434 38.6865 267.74 38.5399C268.047 38.3932 268.327 38.1965 268.58 37.9499C268.834 37.6965 269.06 37.4032 269.26 37.0699C269.46 36.7299 269.627 36.3699 269.76 35.9899C269.9 35.6032 270.007 35.2065 270.08 34.7999C270.154 34.3865 270.19 33.9799 270.19 33.5799C270.19 32.7865 270.047 32.1832 269.76 31.7699C269.474 31.3565 269.07 31.1499 268.55 31.1499C268.23 31.1499 267.907 31.2499 267.58 31.4499C267.254 31.6432 266.937 31.9165 266.63 32.2699C266.33 32.6232 266.047 33.0432 265.78 33.5299C265.52 34.0165 265.294 34.5499 265.1 35.1299L264.77 37.7799ZM265.31 32.6199C265.564 32.1799 265.84 31.7832 266.14 31.4299C266.44 31.0699 266.757 30.7632 267.09 30.5099C267.424 30.2565 267.767 30.0632 268.12 29.9299C268.48 29.7899 268.847 29.7199 269.22 29.7199C270.087 29.7199 270.757 30.0332 271.23 30.6599C271.71 31.2865 271.95 32.2032 271.95 33.4099C271.95 33.9565 271.894 34.5032 271.78 35.0499C271.667 35.5965 271.504 36.1199 271.29 36.6199C271.084 37.1132 270.83 37.5765 270.53 38.0099C270.237 38.4365 269.907 38.8099 269.54 39.1299C269.18 39.4432 268.787 39.6899 268.36 39.8699C267.934 40.0499 267.487 40.1399 267.02 40.1399C266.52 40.1399 266.067 40.0432 265.66 39.8499C265.254 39.6499 264.907 39.3699 264.62 39.0099L264.08 43.4299H262.35L264 29.8599H264.88C265.28 29.8599 265.48 30.0599 265.48 30.4599L265.31 32.6199ZM282.497 29.8699L281.277 39.9999H280.397C279.964 39.9999 279.747 39.7865 279.747 39.3599L279.897 37.5099C279.364 38.3765 278.76 39.0332 278.087 39.4799C277.42 39.9199 276.734 40.1399 276.027 40.1399C275.6 40.1399 275.224 40.0565 274.897 39.8899C274.57 39.7165 274.304 39.4665 274.097 39.1399C273.897 38.8132 273.76 38.4132 273.687 37.9399C273.614 37.4665 273.617 36.9232 273.697 36.3099L274.457 29.8699H276.227L275.467 36.3099C275.374 37.1032 275.42 37.6932 275.607 38.0799C275.8 38.4665 276.16 38.6599 276.687 38.6599C276.994 38.6599 277.31 38.5765 277.637 38.4099C277.964 38.2432 278.277 38.0065 278.577 37.6999C278.877 37.3932 279.157 37.0232 279.417 36.5899C279.684 36.1499 279.91 35.6632 280.097 35.1299L280.727 29.8699H282.497ZM286.463 32.6899C286.729 32.1232 287.016 31.6332 287.323 31.2199C287.636 30.7999 287.963 30.4732 288.303 30.2399C288.643 29.9999 288.993 29.8565 289.353 29.8099C289.713 29.7565 290.079 29.8099 290.453 29.9699L290.133 31.6799C289.266 31.3332 288.499 31.4599 287.833 32.0599C287.173 32.6599 286.636 33.7432 286.223 35.3099L285.663 39.9999H283.923L285.143 29.8599H286.023C286.429 29.8599 286.633 30.0599 286.633 30.4599L286.463 32.6899ZM299.919 29.8699L298.699 39.9999H297.819C297.385 39.9999 297.169 39.7865 297.169 39.3599L297.319 37.5099C296.785 38.3765 296.182 39.0332 295.509 39.4799C294.842 39.9199 294.155 40.1399 293.449 40.1399C293.022 40.1399 292.645 40.0565 292.319 39.8899C291.992 39.7165 291.725 39.4665 291.519 39.1399C291.319 38.8132 291.182 38.4132 291.109 37.9399C291.035 37.4665 291.039 36.9232 291.119 36.3099L291.879 29.8699H293.649L292.889 36.3099C292.795 37.1032 292.842 37.6932 293.029 38.0799C293.222 38.4665 293.582 38.6599 294.109 38.6599C294.415 38.6599 294.732 38.5765 295.059 38.4099C295.385 38.2432 295.699 38.0065 295.999 37.6999C296.299 37.3932 296.579 37.0232 296.839 36.5899C297.105 36.1499 297.332 35.6632 297.519 35.1299L298.149 29.8699H299.919ZM307.875 31.4899C307.821 31.5699 307.768 31.6299 307.715 31.6699C307.661 31.7032 307.595 31.7199 307.515 31.7199C307.421 31.7199 307.318 31.6832 307.205 31.6099C307.098 31.5365 306.965 31.4565 306.805 31.3699C306.651 31.2765 306.461 31.1932 306.235 31.1199C306.008 31.0399 305.735 30.9999 305.415 30.9999C305.115 30.9999 304.841 31.0432 304.595 31.1299C304.348 31.2099 304.135 31.3232 303.955 31.4699C303.781 31.6165 303.645 31.7899 303.545 31.9899C303.451 32.1832 303.405 32.3899 303.405 32.6099C303.405 32.9232 303.508 33.1732 303.715 33.3599C303.921 33.5465 304.181 33.7099 304.495 33.8499C304.808 33.9832 305.145 34.1132 305.505 34.2399C305.865 34.3665 306.201 34.5265 306.515 34.7199C306.828 34.9132 307.088 35.1599 307.295 35.4599C307.501 35.7599 307.605 36.1499 307.605 36.6299C307.605 37.0965 307.511 37.5432 307.325 37.9699C307.145 38.3965 306.881 38.7732 306.535 39.0999C306.195 39.4199 305.781 39.6765 305.295 39.8699C304.815 40.0632 304.275 40.1599 303.675 40.1599C303.028 40.1599 302.455 40.0465 301.955 39.8199C301.461 39.5865 301.058 39.2899 300.745 38.9299L301.185 38.2499C301.245 38.1632 301.308 38.0965 301.375 38.0499C301.448 38.0032 301.541 37.9799 301.655 37.9799C301.761 37.9799 301.868 38.0265 301.975 38.1199C302.081 38.2132 302.215 38.3199 302.375 38.4399C302.535 38.5532 302.735 38.6565 302.975 38.7499C303.221 38.8432 303.531 38.8899 303.905 38.8899C304.231 38.8899 304.525 38.8399 304.785 38.7399C305.051 38.6399 305.275 38.5065 305.455 38.3399C305.641 38.1732 305.781 37.9799 305.875 37.7599C305.975 37.5332 306.025 37.2932 306.025 37.0399C306.025 36.6999 305.921 36.4299 305.715 36.2299C305.508 36.0299 305.248 35.8632 304.935 35.7299C304.621 35.5965 304.285 35.4732 303.925 35.3599C303.565 35.2399 303.228 35.0899 302.915 34.9099C302.601 34.7232 302.341 34.4832 302.135 34.1899C301.928 33.8965 301.825 33.5065 301.825 33.0199C301.825 32.5932 301.908 32.1832 302.075 31.7899C302.248 31.3899 302.495 31.0365 302.815 30.7299C303.135 30.4232 303.521 30.1799 303.975 29.9999C304.435 29.8132 304.951 29.7199 305.525 29.7199C306.131 29.7199 306.665 29.8232 307.125 30.0299C307.591 30.2299 307.991 30.5032 308.325 30.8499L307.875 31.4899ZM117.88 62.1799C117.533 62.5599 117.203 62.8765 116.89 63.1299C116.577 63.3832 116.263 63.5865 115.95 63.7399C115.637 63.8865 115.31 63.9899 114.97 64.0499C114.637 64.1099 114.277 64.1399 113.89 64.1399C113.303 64.1399 112.783 64.0399 112.33 63.8399C111.883 63.6399 111.507 63.3599 111.2 62.9999C110.9 62.6332 110.67 62.1965 110.51 61.6899C110.357 61.1765 110.28 60.6132 110.28 59.9999C110.28 59.1799 110.407 58.3932 110.66 57.6399C110.92 56.8865 111.28 56.2199 111.74 55.6399C112.2 55.0599 112.747 54.5965 113.38 54.2499C114.02 53.9032 114.717 53.7299 115.47 53.7299C116.143 53.7299 116.707 53.8499 117.16 54.0899C117.613 54.3232 118.01 54.6665 118.35 55.1199L117.79 55.7899C117.743 55.8432 117.69 55.8865 117.63 55.9199C117.577 55.9532 117.513 55.9699 117.44 55.9699C117.347 55.9699 117.253 55.9299 117.16 55.8499C117.073 55.7632 116.957 55.6699 116.81 55.5699C116.663 55.4632 116.48 55.3699 116.26 55.2899C116.047 55.2032 115.77 55.1599 115.43 55.1599C114.97 55.1599 114.537 55.2865 114.13 55.5399C113.723 55.7865 113.367 56.1265 113.06 56.5599C112.753 56.9932 112.51 57.5065 112.33 58.0999C112.157 58.6932 112.07 59.3299 112.07 60.0099C112.07 60.4232 112.117 60.7999 112.21 61.1399C112.303 61.4732 112.443 61.7599 112.63 61.9999C112.817 62.2332 113.043 62.4165 113.31 62.5499C113.583 62.6765 113.9 62.7399 114.26 62.7399C114.707 62.7399 115.08 62.6732 115.38 62.5399C115.687 62.4065 115.943 62.2632 116.15 62.1099C116.357 61.9499 116.53 61.8032 116.67 61.6699C116.817 61.5365 116.96 61.4699 117.1 61.4699C117.227 61.4699 117.34 61.5265 117.44 61.6399L117.88 62.1799ZM123.117 62.7499C123.603 62.7499 124.043 62.6165 124.437 62.3499C124.837 62.0832 125.177 61.7299 125.457 61.2899C125.743 60.8432 125.963 60.3299 126.117 59.7499C126.27 59.1699 126.347 58.5632 126.347 57.9299C126.347 56.9965 126.16 56.2965 125.787 55.8299C125.42 55.3565 124.89 55.1199 124.197 55.1199C123.703 55.1199 123.257 55.2532 122.857 55.5199C122.463 55.7799 122.127 56.1299 121.847 56.5699C121.567 57.0099 121.35 57.5199 121.197 58.0999C121.043 58.6799 120.967 59.2865 120.967 59.9199C120.967 60.8532 121.15 61.5599 121.517 62.0399C121.883 62.5132 122.417 62.7499 123.117 62.7499ZM122.947 64.1399C122.393 64.1399 121.887 64.0465 121.427 63.8599C120.967 63.6665 120.57 63.3899 120.237 63.0299C119.903 62.6699 119.643 62.2299 119.457 61.7099C119.27 61.1899 119.177 60.5965 119.177 59.9299C119.177 59.0765 119.31 58.2732 119.577 57.5199C119.843 56.7665 120.21 56.1099 120.677 55.5499C121.143 54.9832 121.69 54.5365 122.317 54.2099C122.95 53.8832 123.63 53.7199 124.357 53.7199C124.91 53.7199 125.417 53.8165 125.877 54.0099C126.337 54.1965 126.733 54.4699 127.067 54.8299C127.4 55.1899 127.66 55.6299 127.847 56.1499C128.033 56.6699 128.127 57.2599 128.127 57.9199C128.127 58.7665 127.993 59.5665 127.727 60.3199C127.46 61.0732 127.093 61.7332 126.627 62.2999C126.167 62.8665 125.62 63.3165 124.987 63.6499C124.353 63.9765 123.673 64.1399 122.947 64.1399ZM132.098 56.4299C132.638 55.5365 133.248 54.8632 133.928 54.4099C134.608 53.9499 135.308 53.7199 136.028 53.7199C136.454 53.7199 136.828 53.8065 137.148 53.9799C137.474 54.1465 137.738 54.3932 137.938 54.7199C138.144 55.0465 138.284 55.4499 138.358 55.9299C138.431 56.4032 138.431 56.9432 138.358 57.5499L137.598 63.9999H135.828L136.588 57.5499C136.681 56.7499 136.631 56.1599 136.438 55.7799C136.244 55.3932 135.888 55.1999 135.368 55.1999C135.048 55.1999 134.721 55.2865 134.388 55.4599C134.061 55.6332 133.744 55.8799 133.438 56.1999C133.131 56.5199 132.844 56.9065 132.578 57.3599C132.318 57.8065 132.094 58.3065 131.908 58.8599L131.328 63.9999H129.548L130.768 53.8599H131.648C132.048 53.8599 132.248 54.0599 132.248 54.4599L132.098 56.4299ZM147.303 56.0799C147.05 55.7199 146.743 55.4699 146.383 55.3299C146.03 55.1832 145.67 55.1099 145.303 55.1099C144.777 55.1099 144.303 55.2665 143.883 55.5799C143.463 55.8932 143.103 56.2999 142.803 56.7999C142.51 57.2932 142.283 57.8465 142.123 58.4599C141.963 59.0732 141.883 59.6765 141.883 60.2699C141.883 61.0632 142.023 61.6699 142.303 62.0899C142.59 62.5032 142.997 62.7099 143.523 62.7099C143.843 62.7099 144.167 62.6099 144.493 62.4099C144.82 62.2099 145.133 61.9332 145.433 61.5799C145.74 61.2199 146.023 60.7965 146.283 60.3099C146.55 59.8232 146.78 59.2899 146.973 58.7099L147.303 56.0799ZM149.883 49.2699L148.073 63.9999H147.143C146.91 63.9999 146.753 63.9399 146.673 63.8199C146.593 63.6999 146.553 63.5532 146.553 63.3799L146.743 61.2499C146.49 61.6899 146.213 62.0865 145.913 62.4399C145.613 62.7932 145.297 63.0965 144.963 63.3499C144.637 63.6032 144.293 63.7999 143.933 63.9399C143.58 64.0732 143.22 64.1399 142.853 64.1399C141.987 64.1399 141.313 63.8265 140.833 63.1999C140.353 62.5665 140.113 61.6499 140.113 60.4499C140.113 59.9032 140.17 59.3565 140.283 58.8099C140.397 58.2632 140.557 57.7399 140.763 57.2399C140.977 56.7399 141.23 56.2765 141.523 55.8499C141.823 55.4165 142.157 55.0432 142.523 54.7299C142.89 54.4165 143.283 54.1699 143.703 53.9899C144.13 53.8099 144.577 53.7199 145.043 53.7199C145.543 53.7199 145.997 53.8199 146.403 54.0199C146.817 54.2132 147.167 54.4899 147.453 54.8499L148.143 49.2699H149.883ZM153.809 53.8699L152.589 63.9999H150.839L152.059 53.8699H153.809ZM154.489 50.6899C154.489 50.8632 154.453 51.0265 154.379 51.1799C154.313 51.3265 154.219 51.4599 154.099 51.5799C153.986 51.6932 153.853 51.7832 153.699 51.8499C153.553 51.9165 153.399 51.9499 153.239 51.9499C153.086 51.9499 152.936 51.9165 152.789 51.8499C152.643 51.7832 152.513 51.6932 152.399 51.5799C152.293 51.4599 152.206 51.3265 152.139 51.1799C152.073 51.0265 152.039 50.8632 152.039 50.6899C152.039 50.5165 152.073 50.3532 152.139 50.1999C152.206 50.0465 152.296 49.9132 152.409 49.7999C152.523 49.6799 152.653 49.5865 152.799 49.5199C152.946 49.4465 153.096 49.4099 153.249 49.4099C153.409 49.4099 153.563 49.4432 153.709 49.5099C153.863 49.5765 153.996 49.6699 154.109 49.7899C154.223 49.9032 154.313 50.0399 154.379 50.1999C154.453 50.3532 154.489 50.5165 154.489 50.6899ZM155.349 63.9999L156.569 53.8599H157.449C157.855 53.8599 158.059 54.0599 158.059 54.4599L157.919 56.2599C158.419 55.4265 158.965 54.7965 159.559 54.3699C160.159 53.9365 160.785 53.7199 161.439 53.7199C162.125 53.7199 162.632 53.9565 162.959 54.4299C163.285 54.8965 163.449 55.5665 163.449 56.4399C163.949 55.5132 164.512 54.8299 165.139 54.3899C165.772 53.9432 166.439 53.7199 167.139 53.7199C168.005 53.7199 168.619 54.0532 168.979 54.7199C169.339 55.3865 169.445 56.3299 169.299 57.5499L168.539 63.9999H166.779L167.549 57.5499C167.642 56.7565 167.615 56.1665 167.469 55.7799C167.329 55.3932 167.009 55.1999 166.509 55.1999C166.222 55.1999 165.935 55.2732 165.649 55.4199C165.369 55.5599 165.095 55.7699 164.829 56.0499C164.562 56.3232 164.312 56.6665 164.079 57.0799C163.852 57.4865 163.649 57.9565 163.469 58.4899V58.4999L162.819 63.9999H161.059L161.819 57.5499C161.919 56.7565 161.905 56.1665 161.779 55.7799C161.652 55.3932 161.339 55.1999 160.839 55.1999C160.519 55.1999 160.209 55.2799 159.909 55.4399C159.615 55.5999 159.335 55.8332 159.069 56.1399C158.809 56.4399 158.565 56.8099 158.339 57.2499C158.112 57.6832 157.905 58.1732 157.719 58.7199L157.089 63.9999H155.349ZM176.241 55.0099C175.821 55.0099 175.434 55.0965 175.081 55.2699C174.727 55.4432 174.414 55.6832 174.141 55.9899C173.867 56.2899 173.634 56.6465 173.441 57.0599C173.247 57.4665 173.097 57.9065 172.991 58.3799C174.017 58.2532 174.841 58.1099 175.461 57.9499C176.081 57.7832 176.557 57.6065 176.891 57.4199C177.224 57.2265 177.444 57.0199 177.551 56.7999C177.657 56.5799 177.711 56.3499 177.711 56.1099C177.711 55.9899 177.684 55.8665 177.631 55.7399C177.577 55.6065 177.491 55.4865 177.371 55.3799C177.257 55.2732 177.107 55.1865 176.921 55.1199C176.734 55.0465 176.507 55.0099 176.241 55.0099ZM179.061 62.1299C178.721 62.4832 178.387 62.7865 178.061 63.0399C177.734 63.2865 177.401 63.4932 177.061 63.6599C176.727 63.8265 176.374 63.9465 176.001 64.0199C175.634 64.0999 175.237 64.1399 174.811 64.1399C174.231 64.1399 173.711 64.0432 173.251 63.8499C172.791 63.6565 172.401 63.3832 172.081 63.0299C171.761 62.6699 171.514 62.2365 171.341 61.7299C171.167 61.2232 171.081 60.6565 171.081 60.0299C171.081 59.5099 171.134 58.9932 171.241 58.4799C171.354 57.9599 171.514 57.4665 171.721 56.9999C171.934 56.5332 172.191 56.0999 172.491 55.6999C172.797 55.2999 173.144 54.9565 173.531 54.6699C173.924 54.3765 174.354 54.1465 174.821 53.9799C175.294 53.8132 175.801 53.7299 176.341 53.7299C176.854 53.7299 177.297 53.8032 177.671 53.9499C178.044 54.0965 178.351 54.2832 178.591 54.5099C178.831 54.7365 179.007 54.9865 179.121 55.2599C179.241 55.5332 179.301 55.7932 179.301 56.0399C179.301 56.4799 179.211 56.8865 179.031 57.2599C178.851 57.6265 178.521 57.9599 178.041 58.2599C177.561 58.5532 176.901 58.8099 176.061 59.0299C175.221 59.2499 174.141 59.4265 172.821 59.5599C172.821 59.6332 172.817 59.7065 172.811 59.7799C172.811 59.8465 172.811 59.9165 172.811 59.9899C172.811 60.8832 173.004 61.5665 173.391 62.0399C173.784 62.5065 174.374 62.7399 175.161 62.7399C175.481 62.7399 175.764 62.7065 176.011 62.6399C176.264 62.5732 176.487 62.4932 176.681 62.3999C176.881 62.2999 177.054 62.1932 177.201 62.0799C177.354 61.9599 177.491 61.8532 177.611 61.7599C177.737 61.6599 177.854 61.5765 177.961 61.5099C178.067 61.4432 178.174 61.4099 178.281 61.4099C178.407 61.4099 178.521 61.4665 178.621 61.5799L179.061 62.1299ZM183.211 56.4299C183.751 55.5365 184.361 54.8632 185.041 54.4099C185.721 53.9499 186.421 53.7199 187.141 53.7199C187.568 53.7199 187.941 53.8065 188.261 53.9799C188.588 54.1465 188.851 54.3932 189.051 54.7199C189.258 55.0465 189.398 55.4499 189.471 55.9299C189.544 56.4032 189.544 56.9432 189.471 57.5499L188.711 63.9999H186.941L187.701 57.5499C187.794 56.7499 187.744 56.1599 187.551 55.7799C187.358 55.3932 187.001 55.1999 186.481 55.1999C186.161 55.1999 185.834 55.2865 185.501 55.4599C185.174 55.6332 184.858 55.8799 184.551 56.1999C184.244 56.5199 183.958 56.9065 183.691 57.3599C183.431 57.8065 183.208 58.3065 183.021 58.8599L182.441 63.9999H180.661L181.881 53.8599H182.761C183.161 53.8599 183.361 54.0599 183.361 54.4599L183.211 56.4299ZM191.949 62.0899C191.949 62.0499 191.949 61.9999 191.949 61.9399C191.949 61.8732 191.953 61.7799 191.959 61.6599C191.973 61.5399 191.989 61.3832 192.009 61.1899C192.036 60.9965 192.069 60.7432 192.109 60.4299L192.729 55.3599H191.599C191.506 55.3599 191.429 55.3299 191.369 55.2699C191.316 55.2032 191.296 55.1032 191.309 54.9699L191.389 54.2599L192.949 54.0499L193.709 50.9199C193.743 50.8199 193.793 50.7399 193.859 50.6799C193.933 50.6132 194.023 50.5799 194.129 50.5799H195.059L194.629 54.0699H197.289L197.139 55.3599H194.469L193.859 60.3399C193.826 60.6132 193.799 60.8332 193.779 60.9999C193.759 61.1665 193.743 61.2999 193.729 61.3999C193.723 61.4999 193.716 61.5699 193.709 61.6099C193.709 61.6499 193.709 61.6799 193.709 61.6999C193.709 62.0399 193.789 62.2932 193.949 62.4599C194.109 62.6199 194.323 62.6999 194.589 62.6999C194.769 62.6999 194.923 62.6765 195.049 62.6299C195.183 62.5765 195.299 62.5199 195.399 62.4599C195.499 62.3999 195.583 62.3465 195.649 62.2999C195.716 62.2465 195.773 62.2199 195.819 62.2199C195.879 62.2199 195.923 62.2332 195.949 62.2599C195.983 62.2865 196.013 62.3299 196.039 62.3899L196.419 63.2399C196.093 63.5265 195.719 63.7532 195.299 63.9199C194.886 64.0799 194.469 64.1599 194.049 64.1599C193.403 64.1599 192.893 63.9832 192.519 63.6299C192.153 63.2765 191.963 62.7632 191.949 62.0899ZM207.399 53.8699L206.179 63.9999H205.299C204.866 63.9999 204.649 63.7865 204.649 63.3599L204.799 61.5099C204.266 62.3765 203.663 63.0332 202.989 63.4799C202.323 63.9199 201.636 64.1399 200.929 64.1399C200.503 64.1399 200.126 64.0565 199.799 63.8899C199.473 63.7165 199.206 63.4665 198.999 63.1399C198.799 62.8132 198.663 62.4132 198.589 61.9399C198.516 61.4665 198.519 60.9232 198.599 60.3099L199.359 53.8699H201.129L200.369 60.3099C200.276 61.1032 200.323 61.6932 200.509 62.0799C200.703 62.4665 201.063 62.6599 201.589 62.6599C201.896 62.6599 202.213 62.5765 202.539 62.4099C202.866 62.2432 203.179 62.0065 203.479 61.6999C203.779 61.3932 204.059 61.0232 204.319 60.5899C204.586 60.1499 204.813 59.6632 204.999 59.1299L205.629 53.8699H207.399ZM208.825 63.9999L210.045 53.8599H210.925C211.332 53.8599 211.535 54.0599 211.535 54.4599L211.395 56.2599C211.895 55.4265 212.442 54.7965 213.035 54.3699C213.635 53.9365 214.262 53.7199 214.915 53.7199C215.602 53.7199 216.109 53.9565 216.435 54.4299C216.762 54.8965 216.925 55.5665 216.925 56.4399C217.425 55.5132 217.989 54.8299 218.615 54.3899C219.249 53.9432 219.915 53.7199 220.615 53.7199C221.482 53.7199 222.095 54.0532 222.455 54.7199C222.815 55.3865 222.922 56.3299 222.775 57.5499L222.015 63.9999H220.255L221.025 57.5499C221.119 56.7565 221.092 56.1665 220.945 55.7799C220.805 55.3932 220.485 55.1999 219.985 55.1999C219.699 55.1999 219.412 55.2732 219.125 55.4199C218.845 55.5599 218.572 55.7699 218.305 56.0499C218.039 56.3232 217.789 56.6665 217.555 57.0799C217.329 57.4865 217.125 57.9565 216.945 58.4899V58.4999L216.295 63.9999H214.535L215.295 57.5499C215.395 56.7565 215.382 56.1665 215.255 55.7799C215.129 55.3932 214.815 55.1999 214.315 55.1999C213.995 55.1999 213.685 55.2799 213.385 55.4399C213.092 55.5999 212.812 55.8332 212.545 56.1399C212.285 56.4399 212.042 56.8099 211.815 57.2499C211.589 57.6832 211.382 58.1732 211.195 58.7199L210.565 63.9999H208.825ZM225.46 53.8399C225.253 53.3799 225.143 52.9232 225.13 52.4699C225.123 52.0099 225.197 51.5632 225.35 51.1299C225.51 50.6899 225.74 50.2699 226.04 49.8699C226.347 49.4632 226.713 49.0865 227.14 48.7399L227.61 49.0499C227.683 49.1032 227.72 49.1765 227.72 49.2699C227.72 49.3232 227.707 49.3732 227.68 49.4199C227.653 49.4665 227.603 49.5299 227.53 49.6099C227.383 49.7832 227.233 49.9899 227.08 50.2299C226.933 50.4632 226.817 50.7232 226.73 51.0099C226.643 51.2899 226.6 51.5932 226.6 51.9199C226.607 52.2399 226.687 52.5699 226.84 52.9099C226.887 53.0165 226.883 53.1165 226.83 53.2099C226.783 53.2965 226.693 53.3665 226.56 53.4199L225.46 53.8399ZM228.25 53.8399C228.043 53.3799 227.933 52.9232 227.92 52.4699C227.913 52.0099 227.987 51.5632 228.14 51.1299C228.3 50.6899 228.53 50.2699 228.83 49.8699C229.137 49.4632 229.503 49.0865 229.93 48.7399L230.4 49.0499C230.473 49.1032 230.51 49.1765 230.51 49.2699C230.51 49.3232 230.497 49.3732 230.47 49.4199C230.443 49.4665 230.393 49.5299 230.32 49.6099C230.173 49.7832 230.023 49.9899 229.87 50.2299C229.723 50.4632 229.607 50.7232 229.52 51.0099C229.433 51.2899 229.39 51.5932 229.39 51.9199C229.397 52.2399 229.477 52.5699 229.63 52.9099C229.677 53.0165 229.673 53.1165 229.62 53.2099C229.573 53.2965 229.483 53.3665 229.35 53.4199L228.25 53.8399Z" fill="#222224"/>
</svg>
